<svg width="56" height="24" viewBox="0 0 56 24" fill="none" xmlns="http://www.w3.org/2000/svg">
<path d="M12 24C18.6274 24 24 18.6274 24 12C24 5.37258 18.6274 0 12 0C5.37258 0 0 5.37258 0 12C0 18.6274 5.37258 24 12 24Z" fill="#F4B731"/>
<path fill-rule="evenodd" clip-rule="evenodd" d="M6.95775 6H11.8718C14.8605 6 17.1262 7.587 17.9692 9.8955H19.5V11.2913H18.2917C18.315 11.5118 18.327 11.7368 18.327 11.9648V11.9992C18.327 12.2557 18.312 12.5093 18.282 12.7568H19.5V14.1517H17.94C17.0752 16.4288 14.8275 18 11.8725 18H6.95775V14.1517H5.25V12.7568H6.95775V11.2913H5.25V9.89625H6.95775V6ZM8.331 14.1517V16.7482H11.871C14.0565 16.7482 15.6795 15.708 16.4347 14.1517H8.331ZM16.8555 12.7568H8.331V11.2913H16.8585C16.8893 11.5215 16.9058 11.7577 16.9058 11.9992V12.033C16.9058 12.2798 16.8885 12.5205 16.8555 12.756V12.7568ZM11.8725 7.24875C14.067 7.24875 15.6952 8.31675 16.446 9.89475H8.331V7.2495H11.871L11.8725 7.24875Z" fill="white"/>
<path d="M28 24C34.6274 24 40 18.6274 40 12C40 5.37258 34.6274 0 28 0C21.3726 0 16 5.37258 16 12C16 18.6274 21.3726 24 28 24Z" fill="#2775C9"/>
<path d="M27.8125 20.625C22.945 20.625 19 16.68 19 11.8125C19 6.945 22.945 3 27.8125 3C32.68 3 36.625 6.945 36.625 11.8125C36.625 14.1497 35.6965 16.3912 34.0439 18.0439C32.3912 19.6965 30.1497 20.625 27.8125 20.625ZM27.2875 8.5425C26.8053 8.56641 26.3495 8.7697 26.0095 9.11245C25.6696 9.4552 25.47 9.91265 25.45 10.395C25.45 11.3025 26.005 11.895 27.1825 12.1425L28.0075 12.3375C28.81 12.525 29.14 12.795 29.14 13.2525C29.14 13.71 28.5625 14.16 27.8125 14.16C27.5461 14.1844 27.2782 14.1334 27.0395 14.0127C26.8007 13.892 26.6008 13.7065 26.4625 13.4775C26.4215 13.3906 26.3569 13.317 26.2759 13.2653C26.195 13.2136 26.1011 13.1857 26.005 13.185H25.5625C25.5285 13.1913 25.496 13.2043 25.467 13.2232C25.438 13.2421 25.4131 13.2665 25.3935 13.2951C25.374 13.3236 25.3603 13.3558 25.3533 13.3897C25.3463 13.4236 25.346 13.4585 25.3525 13.4925C25.4603 13.9324 25.7109 14.3242 26.0651 14.6065C26.4193 14.8887 26.8571 15.0456 27.31 15.0525V15.6825C27.31 15.8227 27.3657 15.9572 27.4649 16.0564C27.564 16.1555 27.6985 16.2113 27.8387 16.2113C27.979 16.2113 28.1135 16.1555 28.2126 16.0564C28.3118 15.9572 28.3675 15.8227 28.3675 15.6825V15.045C28.8796 15.0392 29.3692 14.8337 29.732 14.4723C30.0948 14.1109 30.3022 13.6221 30.31 13.11C30.31 12.1575 29.7625 11.61 28.465 11.3325L27.715 11.1675C26.965 10.98 26.6125 10.7325 26.6125 10.3125C26.6125 9.8925 27.0625 9.4275 27.8125 9.4275C28.0487 9.40283 28.287 9.44706 28.4986 9.55487C28.7102 9.66267 28.8861 9.82942 29.005 10.035C29.0532 10.1377 29.1295 10.2246 29.2251 10.2856C29.3207 10.3467 29.4316 10.3794 29.545 10.38H29.8975C29.9776 10.3604 30.0469 10.3101 30.0904 10.24C30.1339 10.1699 30.1481 10.0855 30.13 10.005C30.0284 9.59883 29.8011 9.23512 29.4806 8.96576C29.16 8.6964 28.7626 8.53514 28.345 8.505V7.9875C28.345 7.84727 28.2893 7.71278 28.1901 7.61362C28.091 7.51446 27.9565 7.45875 27.8162 7.45875C27.676 7.45875 27.5415 7.51446 27.4424 7.61362C27.3432 7.71278 27.2875 7.84727 27.2875 7.9875V8.5425ZM21.205 11.8125C21.2059 13.1941 21.6407 14.5404 22.4482 15.6614C23.2556 16.7825 24.3949 17.6215 25.705 18.06H25.81C25.8995 18.06 25.9854 18.0244 26.0486 17.9611C26.1119 17.8979 26.1475 17.812 26.1475 17.7225V17.565C26.1477 17.4254 26.1065 17.2888 26.0291 17.1727C25.9517 17.0565 25.8415 16.966 25.7125 16.9125C24.6922 16.5007 23.8183 15.7933 23.2028 14.8813C22.5874 13.9692 22.2586 12.894 22.2586 11.7938C22.2586 10.6935 22.5874 9.6183 23.2028 8.70624C23.8183 7.79417 24.6922 7.08683 25.7125 6.675C25.8409 6.62285 25.9508 6.53366 26.0283 6.41878C26.1058 6.30391 26.1473 6.16856 26.1475 6.03V5.8575C26.148 5.80685 26.1363 5.75683 26.1133 5.71169C26.0903 5.66654 26.0568 5.62759 26.0156 5.59815C25.9744 5.56871 25.9267 5.54965 25.8765 5.54257C25.8264 5.53549 25.7753 5.54061 25.7275 5.5575C24.412 5.99257 23.267 6.83108 22.4551 7.95393C21.6433 9.07679 21.2059 10.4269 21.205 11.8125ZM34.42 11.8125C34.4176 10.4322 33.982 9.08754 33.1746 7.96801C32.3673 6.84849 31.2289 6.0106 29.92 5.5725H29.8075C29.714 5.5725 29.6244 5.60964 29.5582 5.67575C29.4921 5.74185 29.455 5.83151 29.455 5.925V6.0375C29.458 6.18215 29.5028 6.32284 29.584 6.44261C29.6652 6.56237 29.7793 6.6561 29.9125 6.7125C30.9305 7.12553 31.802 7.83292 32.4157 8.74413C33.0293 9.65534 33.3571 10.7289 33.3571 11.8275C33.3571 12.9261 33.0293 13.9997 32.4157 14.9109C31.802 15.8221 30.9305 16.5295 29.9125 16.9425C29.7818 16.9995 29.6701 17.0925 29.5904 17.2108C29.5107 17.329 29.4663 17.4675 29.4625 17.61V17.7375C29.4631 17.7931 29.4769 17.8478 29.5027 17.897C29.5285 17.9463 29.5656 17.9887 29.611 18.0209C29.6563 18.0531 29.7086 18.0741 29.7636 18.0822C29.8187 18.0903 29.8748 18.0852 29.9275 18.0675C31.2374 17.6273 32.3759 16.7866 33.182 15.6642C33.9882 14.5418 34.4212 13.1944 34.42 11.8125Z" fill="white"/>
<path d="M44 24C50.6274 24 56 18.6274 56 12C56 5.37258 50.6274 0 44 0C37.3726 0 32 5.37258 32 12C32 18.6274 37.3726 24 44 24Z" fill="#26A17B"/>
<path fill-rule="evenodd" clip-rule="evenodd" d="M45.2165 13.173V13.1715C45.134 13.1775 44.7087 13.203 43.76 13.203C43.0025 13.203 42.4693 13.1805 42.2818 13.1715V13.1738C39.3657 13.0455 37.1892 12.5378 37.1892 11.9303C37.1892 11.3235 39.3657 10.8158 42.2818 10.6853V12.6682C42.4722 12.6817 43.0182 12.714 43.7728 12.714C44.678 12.714 45.1318 12.6765 45.2165 12.669V10.6867C48.1265 10.8165 50.2978 11.3243 50.2978 11.9303C50.2978 12.5378 48.1265 13.044 45.2165 13.173ZM45.2165 10.4805V8.706H49.277V6H38.2213V8.706H42.2818V10.4798C38.9817 10.6312 36.5 11.2852 36.5 12.0682C36.5 12.8512 38.9817 13.5045 42.2818 13.6567V19.3433H45.2165V13.6552C48.5113 13.5037 50.987 12.8505 50.987 12.0682C50.987 11.286 48.5113 10.6328 45.2165 10.4805Z" fill="white"/>
</svg>
