<svg xmlns="http://www.w3.org/2000/svg" viewBox="0 0 736.41 337.42"><defs><style>.cls-1{fill:#f0b90b;stroke:#f0b90b;}</style></defs><title>Asset 1</title><g id="Layer_2" data-name="Layer 2"><g id="Layer_1-2" data-name="Layer 1"><path class="cls-1" d="M168.2.71l41.5,42.5L105.2,147.71l-41.5-41.5Z"/><path class="cls-1" d="M231.2,63.71l41.5,42.5L105.2,273.71l-41.5-41.5Z"/><path class="cls-1" d="M42.2,126.71l41.5,42.5-41.5,41.5L.7,169.21Z"/><path class="cls-1" d="M294.2,126.71l41.5,42.5L168.2,336.71l-41.5-41.5Z"/></g></g>
<svg width="1400" height="1400" viewBox="10 13 70 100" fill="none" xmlns="http://www.w3.org/2000/svg">
<g filter="url(#filter0_d_15_3228)">
<path d="M23.9267 16.3259C25.7643 16.1335 27.6974 17.3869 27.6974 17.3869L28.3426 17.8133C27.5376 18.2788 25.6193 19.4329 24.0836 20.7232C22.793 18.1526 22.6964 16.4557 23.9267 16.3259Z" fill="url(#paint0_linear_15_3228)"/>
<g style="mix-blend-mode:soft-light">
<path d="M29.5899 18.0928C29.5899 18.0928 23.2985 14.6395 22.9834 18.8558C22.6964 22.7867 24.6222 23.7626 24.8125 23.1172C25.0028 22.4719 27.9662 18.2539 29.5899 18.0928Z" fill="#0B111D" fill-opacity="0.7"/>
</g>
<path d="M36.8471 24.2198C38.1238 22.0086 37.2545 19.9342 34.4744 16.4309C32.5906 14.0496 27.7304 13.3854 25.5056 19.6023C23.2809 25.8191 35.1299 27.1849 36.8471 24.2198Z" fill="url(#paint1_linear_15_3228)"/>
<path style="mix-blend-mode:multiply" d="M35.65 19.9773C35.3174 18.8725 34.7046 17.2895 32.6195 16.4155C30.5344 15.5415 27.7005 15.9086 25.4701 19.6558C23.2396 23.4031 37.246 25.2808 35.65 19.9773Z" fill="url(#paint2_radial_15_3228)"/>
<path d="M33.3035 19.6149C34.4966 18.4957 37.0092 19.6206 39.6718 20.9801C40.7902 21.5504 41.5061 22.509 41.4244 23.6559C41.3117 25.2441 38.4184 29.415 34.1993 33.1194C27.8099 37.7018 31.6939 29.3331 32.3052 27.4849C32.9165 25.6367 31.8572 20.9729 33.3035 19.6149Z" fill="url(#paint3_linear_15_3228)"/>
<path style="mix-blend-mode:multiply" d="M33.3032 19.6149C33.6419 19.2975 34.0856 19.1606 34.61 19.1577C38.0774 20.4165 41.926 22.5429 40.2612 25.8722C39.3096 27.7757 35.3663 31.4413 35.3663 31.4413C35.3663 31.4413 33.0323 21.7094 32.9417 20.1156C33.0325 19.9291 33.1548 19.7597 33.3032 19.6149Z" fill="url(#paint4_radial_15_3228)"/>
<path d="M37.2088 22.8779C37.7422 21.954 36.225 20.0778 33.8183 18.6882C31.4115 17.2987 29.0271 16.9223 28.4937 17.8462C28.1987 18.3571 28.7854 19.2424 28.84 19.8164C29.063 22.1907 26.112 25.1544 26.1372 27.2583C26.7088 25.1934 28.5575 23.1428 29.5526 22.3388C30.3887 21.6637 31.801 22.0941 32.7782 22.5048C34.7462 23.4472 36.7191 23.726 37.2088 22.8779Z" fill="url(#paint5_linear_15_3228)"/>
<g style="mix-blend-mode:soft-light">
<path d="M35.1023 19.8405C35.1023 19.8405 37.1213 21.7668 36.4339 23.3382C35.3483 23.5447 33.781 22.9858 32.7701 22.5031C32.2024 22.2629 31.4876 22.0198 30.8247 21.9885C31.4743 20.1112 32.7466 18.1304 35.1023 19.8405Z" fill="#0B111D"/>
</g>
<path d="M31.6583 19.669C32.3686 20.4749 32.2788 21.4732 32.0384 22.2309C32.2273 22.2915 32.41 22.358 32.5823 22.4265C33.1702 22.0605 33.9574 21.7907 34.8381 22.0622C35.6243 22.3048 36.1466 21.1888 35.1064 19.8423C34.0661 18.4959 33.1949 17.6833 31.8977 17.0905C30.6006 16.4978 29.8728 17.6446 31.6583 19.669Z" fill="url(#paint6_linear_15_3228)"/>
<path d="M32.582 22.4267C33.17 22.0607 33.9571 21.7909 34.8378 22.0624C34.9807 22.1145 35.1383 22.1097 35.2783 22.0491C35.4182 21.9884 35.5299 21.8765 35.5904 21.7363C35.3439 22.2531 35.0572 22.7497 34.7329 23.2215C33.9937 23.0207 33.274 22.7547 32.582 22.4267Z" fill="url(#paint7_linear_15_3228)"/>
<path d="M30.9163 17.0144C30.3912 17.2901 30.4243 18.2705 31.6611 19.6711C32.3714 20.477 32.2816 21.4752 32.0412 22.233C32.1557 22.2668 30.4645 21.6068 29.5555 22.3407C28.5565 23.1425 26.7141 25.1913 26.1401 27.2603C26.115 25.1564 29.0659 22.1927 28.843 19.8184C28.812 19.6003 28.7553 19.3868 28.674 19.1824C29.4521 18.0901 30.5748 17.1322 30.9163 17.0144Z" fill="url(#paint8_linear_15_3228)"/>
<path d="M32.554 18.9603C32.0587 18.5854 30.9897 17.9898 30.8195 18.461C31.0428 18.9003 31.3249 19.3068 31.658 19.6694C31.9486 19.9941 32.135 20.3991 32.1932 20.8319C32.9753 21.3346 33.6899 21.49 33.996 21.3033C34.3681 21.0698 33.9269 19.9952 32.554 18.9603Z" fill="url(#paint9_linear_15_3228)"/>
<path d="M32.1893 20.8296C32.9715 21.3323 33.686 21.4877 33.9922 21.301C34.1144 21.2262 34.1496 21.0607 34.0953 20.8368C34.1342 20.9261 34.152 21.0233 34.1473 21.1207C34.1427 21.2182 34.1157 21.3134 34.0684 21.3988C33.9535 21.6065 33.8241 21.8057 33.6812 21.9952C33.2925 22.0692 32.9212 22.2167 32.5872 22.4297C32.4149 22.3613 32.2321 22.2948 32.0433 22.2342C32.3242 21.2763 32.186 20.8075 32.1893 20.8296Z" fill="url(#paint10_linear_15_3228)"/>
<path d="M33.9185 21.1277C34.0408 21.0529 34.1485 21.0602 34.0942 20.8363C34.0942 20.8363 34.2315 21.209 34.0138 21.354C33.7104 21.5544 32.9959 21.399 32.2015 20.8919C32.1987 20.8709 32.1946 20.8501 32.1892 20.8296C32.9764 21.3352 33.6144 21.3155 33.9185 21.1277Z" fill="white"/>
<g style="mix-blend-mode:soft-light">
<g style="mix-blend-mode:multiply">
<path d="M28.4937 17.8467C28.3115 18.7148 29.2952 18.9866 29.5312 19.9454C29.7671 20.9042 29.0715 21.5473 28.579 22.6859C31.1759 19.0493 32.3206 22.8012 35.3287 23.3371C34.6241 23.2203 33.9366 23.0178 33.2816 22.734C32.8061 22.5336 30.673 21.434 29.5525 22.3393C28.527 23.2147 27.6501 24.2512 26.9563 25.4082C26.8797 25.3432 26.807 25.2738 26.7385 25.2003C27.5827 23.4502 28.9966 21.4865 28.84 19.8169C28.7854 19.2429 28.1987 18.3576 28.4937 17.8467Z" fill="#0B111D" fill-opacity="0.7"/>
</g>
</g>
<path d="M37.3095 22.5502C37.1623 24.0659 34.2857 23.2277 32.7768 22.5073C31.8007 22.0945 30.3872 21.6662 29.5523 22.3392C28.5532 23.141 26.7108 25.1898 26.1369 27.2588C26.1117 25.1549 29.0627 22.1912 28.8397 19.8169C28.7834 19.2459 28.1984 18.3575 28.4934 17.8466C28.5526 17.747 28.6327 17.6614 28.7281 17.5957C28.7281 17.5957 23.313 20.5625 22.1246 22.9202C21.0554 24.7722 20.7624 26.9713 21.3103 29.0337C21.8581 31.0961 23.2018 32.8528 25.0458 33.9174C26.8898 34.9821 29.083 35.2674 31.143 34.7106C33.203 34.1539 34.961 32.8006 36.0302 30.9486C37.4789 28.7412 37.3095 22.5502 37.3095 22.5502Z" fill="url(#paint11_linear_15_3228)"/>
<g style="mix-blend-mode:soft-light">
<path d="M31.905 25.8884C30.8251 23.3963 25.4664 23.0892 23.4409 19.6069C23.1741 21.3646 21.9996 24.3321 21.6633 27.5614C21.4958 29.7089 22.9417 31.0284 23.969 31.5219C25.1132 32.0707 25.5508 32.1834 26.3648 32.0691C28.426 31.7796 33.1949 28.8733 31.905 25.8884Z" fill="#0B111D" fill-opacity="0.7"/>
</g>
<g style="mix-blend-mode:soft-light">
<path d="M39.4339 25.933C39.4339 25.933 36.7979 23.9979 34.3115 25.3908C31.825 26.7837 31.9393 30.5815 28.7407 32.437C25.5422 34.2925 37.6024 32.9383 39.4339 25.933Z" fill="#0B111D" fill-opacity="0.7"/>
</g>
<path d="M41.4284 23.6583C40.4308 27.708 35.5224 24.9818 33.0089 28.4903C30.0942 32.5519 25.7935 34.1794 22.8704 32.073C24.4125 33.9408 26.3765 34.5034 26.3765 34.5034C27.5009 34.8808 28.6957 35.004 29.8752 34.864C31.0546 34.7241 32.1896 34.3246 33.1987 33.6941C33.4645 33.5217 33.701 33.358 33.8914 33.2095C35.3102 32.1008 37.7586 29.4945 39.3799 27.3342C41.0011 25.1738 41.4468 23.782 41.4284 23.6583Z" fill="white"/>
<path d="M41.2157 24.054C40.2267 27.9872 35.6485 25.4489 33.2046 28.8672C30.373 32.8259 25.4504 33.9552 22.6583 31.9355C24.1345 33.795 26.7868 34.7458 26.7868 34.7458C27.8641 35.1031 29.0109 35.2134 30.145 35.0689C31.2791 34.9243 32.3724 34.5284 33.3466 33.9096C33.6031 33.7405 33.8316 33.5801 34.0156 33.4346C35.387 32.3492 37.7587 29.8042 39.3325 27.6977C40.9063 25.5913 41.2324 24.1738 41.2157 24.054Z" fill="url(#paint12_linear_15_3228)"/>
<path d="M21.4885 24.5117C21.4414 24.6421 21.3936 24.7922 21.347 24.9564L21.3581 24.9628C21.0427 26.1744 21.0123 27.4418 21.2694 28.6649C21.5265 29.8881 22.0641 31.0336 22.8396 32.0109C23.4468 32.7748 26.1777 32.7925 28.4884 31.0262C30.1194 29.7775 32.7449 26.9853 29.3935 25.2793C26.4677 23.7906 24.7521 22.3787 23.9847 20.3902C23.1753 18.7113 22.8677 17.2682 23.3088 16.6343C23.3088 16.6343 22.9048 17.1994 22.8268 18.6555C22.7489 20.1115 22.0318 23.0322 21.4885 24.5117Z" fill="white"/>
<path d="M21.2716 24.5771C21.226 24.7039 21.1799 24.8499 21.1349 25.0097L21.1458 25.016C20.842 26.195 20.8174 27.4296 21.0741 28.6223C21.3308 29.8149 21.8617 30.9331 22.6249 31.8883C23.2225 32.635 25.8959 32.6635 28.1507 30.9521C29.7422 29.7424 32.3009 27.0329 29.0132 25.3572C26.1429 23.895 24.4577 22.5125 23.6983 20.5721C22.8991 18.9332 22.8829 17.2757 23.3121 16.66C23.3121 16.66 22.6271 17.4586 22.5577 18.8774C22.4884 20.2961 21.7974 23.1379 21.2716 24.5771Z" fill="url(#paint13_linear_15_3228)"/>
<path d="M29.4571 22.6535C28.7614 23.2427 28.2304 23.5947 27.6861 24.3265L27.675 24.3201C28.234 23.5591 28.8802 22.8662 29.6001 22.2558C30.4356 21.5817 31.8485 22.0111 32.8246 22.4239C34.1697 23.0658 36.6015 23.7967 37.2172 22.8813C36.6935 23.9252 34.2886 23.5427 32.9052 22.8813C31.9296 22.4675 30.2932 21.9785 29.4571 22.6535Z" fill="white"/>
<path d="M27.3137 24.0943C28.0977 22.6528 28.6393 21.1511 28.519 19.827C28.4627 19.2559 28.2025 18.3595 28.4975 17.8486C28.5045 17.8365 28.512 17.8234 28.519 17.8113C28.2831 18.3267 28.8372 19.1756 28.8857 19.73C29.0119 21.0832 28.1097 22.6274 27.3137 24.0943Z" fill="#EFD8DE"/>
<path d="M31.8977 17.091C32.136 17.199 32.3682 17.32 32.5932 17.4535C32.3799 17.3284 32.1604 17.2142 31.9355 17.1114C30.6621 16.531 29.9387 17.6656 31.6895 19.6619C32.3864 20.456 32.2949 21.4411 32.0559 22.1917C32.2402 22.2509 32.42 22.3157 32.5892 22.3824C33.1702 22.0192 33.9454 21.7492 34.8119 22.0152C35.5838 22.2522 35.3274 20.8928 34.7404 19.7188C34.508 19.2539 34.5237 19.12 34.252 18.8244C34.5316 19.1272 34.8133 19.4635 35.1078 19.8449C36.1511 21.1931 35.6183 22.4342 34.8321 22.1917C33.95 21.918 33.1714 22.0589 32.5823 22.4269C32.41 22.3584 32.2272 22.2919 32.0384 22.2314C32.2788 21.4736 31.9287 20.5247 31.2184 19.7188C29.4329 17.6944 30.5992 16.496 31.8977 17.091Z" fill="white"/>
</g>
<defs>
<filter id="filter0_d_15_3228" x="0.898193" y="0.72168" width="60.5325" height="60.4089" filterUnits="userSpaceOnUse" color-interpolation-filters="sRGB">
<feFlood flood-opacity="0" result="BackgroundImageFix"/>
<feColorMatrix in="SourceAlpha" type="matrix" values="0 0 0 0 0 0 0 0 0 0 0 0 0 0 0 0 0 0 127 0" result="hardAlpha"/>
<feOffset dy="6"/>
<feGaussianBlur stdDeviation="10"/>
<feComposite in2="hardAlpha" operator="out"/>
<feColorMatrix type="matrix" values="0 0 0 0 0.862745 0 0 0 0 0.2 0 0 0 0 0.0941176 0 0 0 0.3 0"/>
<feBlend mode="normal" in2="BackgroundImageFix" result="effect1_dropShadow_15_3228"/>
<feBlend mode="normal" in="SourceGraphic" in2="effect1_dropShadow_15_3228" result="shape"/>
</filter>
<linearGradient id="paint0_linear_15_3228" x1="26.0178" y1="21.8399" x2="22.6349" y2="20.9892" gradientUnits="userSpaceOnUse">
<stop stop-color="#F14226"/>
<stop offset="1" stop-color="#FF6D40"/>
</linearGradient>
<linearGradient id="paint1_linear_15_3228" x1="34.395" y1="28.4671" x2="26.0088" y2="26.5512" gradientUnits="userSpaceOnUse">
<stop stop-color="#F14226"/>
<stop offset="1" stop-color="#FF6D40"/>
</linearGradient>
<radialGradient id="paint2_radial_15_3228" cx="0" cy="0" r="1" gradientUnits="userSpaceOnUse" gradientTransform="translate(30.6993 20.6421) rotate(-150) scale(4.82679 4.84776)">
<stop stop-color="#BF2245"/>
<stop offset="0.21" stop-color="#CB4D69"/>
<stop offset="0.67" stop-color="#EAB8C3"/>
<stop offset="0.97" stop-color="white"/>
</radialGradient>
<linearGradient id="paint3_linear_15_3228" x1="34.4502" y1="36.3719" x2="28.0908" y2="33.9384" gradientUnits="userSpaceOnUse">
<stop stop-color="#F14226"/>
<stop offset="1" stop-color="#FF6D40"/>
</linearGradient>
<radialGradient id="paint4_radial_15_3228" cx="0" cy="0" r="1" gradientUnits="userSpaceOnUse" gradientTransform="translate(37.2653 26.7893) rotate(-150) scale(4.33691 4.35575)">
<stop stop-color="#BF2245"/>
<stop offset="0.26" stop-color="#CF4D68"/>
<stop offset="0.84" stop-color="#F6B8C0"/>
<stop offset="0.97" stop-color="#FFD1D5"/>
</radialGradient>
<linearGradient id="paint5_linear_15_3228" x1="35.2876" y1="27.656" x2="33.2325" y2="21.1571" gradientUnits="userSpaceOnUse">
<stop stop-color="#FF7262"/>
<stop offset="1" stop-color="#F31808"/>
</linearGradient>
<linearGradient id="paint6_linear_15_3228" x1="35.7254" y1="22.4443" x2="30.0427" y2="19.4577" gradientUnits="userSpaceOnUse">
<stop stop-color="#FF7262"/>
<stop offset="1" stop-color="#F31808"/>
</linearGradient>
<linearGradient id="paint7_linear_15_3228" x1="34.5686" y1="23.5736" x2="33.0062" y2="23.1951" gradientUnits="userSpaceOnUse">
<stop stop-color="#F14226"/>
<stop offset="1" stop-color="#FF6D40"/>
</linearGradient>
<linearGradient id="paint8_linear_15_3228" x1="28.3937" y1="28.5614" x2="25.4413" y2="27.2513" gradientUnits="userSpaceOnUse">
<stop stop-color="#F14226"/>
<stop offset="1" stop-color="#FF6D40"/>
</linearGradient>
<linearGradient id="paint9_linear_15_3228" x1="30.6033" y1="20.2399" x2="34.3171" y2="19.5394" gradientUnits="userSpaceOnUse">
<stop stop-color="#FF7262"/>
<stop offset="1" stop-color="#F31808"/>
</linearGradient>
<linearGradient id="paint10_linear_15_3228" x1="33.2011" y1="22.9027" x2="31.899" y2="22.504" gradientUnits="userSpaceOnUse">
<stop stop-color="#F14226"/>
<stop offset="1" stop-color="#FF6D40"/>
</linearGradient>
<linearGradient id="paint11_linear_15_3228" x1="32.003" y1="37.9342" x2="21.0528" y2="35.0324" gradientUnits="userSpaceOnUse">
<stop stop-color="#F14226"/>
<stop offset="1" stop-color="#FF6D40"/>
</linearGradient>
<linearGradient id="paint12_linear_15_3228" x1="33.1686" y1="38.5968" x2="24.731" y2="35.7563" gradientUnits="userSpaceOnUse">
<stop stop-color="#F14226"/>
<stop offset="1" stop-color="#FF6D40"/>
</linearGradient>
<linearGradient id="paint13_linear_15_3228" x1="26.9235" y1="34.4337" x2="18.7233" y2="31.9934" gradientUnits="userSpaceOnUse">
<stop stop-color="#F14226"/>
<stop offset="1" stop-color="#FF6D40"/>
</linearGradient>
</defs>
</svg>
</svg>