<svg width="66" height="66" viewBox="20 15 26 26" fill="none" xmlns="http://www.w3.org/2000/svg">
<g filter="url(#filter0_d_488_44499)">
<path d="M24.5119 16.591C26.717 16.36 29.0367 17.8641 29.0367 17.8641L29.811 18.3757C28.8451 18.9344 26.5431 20.3194 24.7002 21.8676C23.1515 18.7829 23.0355 16.7466 24.5119 16.591Z" fill="url(#paint0_linear_488_44499)"/>
<g style="mix-blend-mode:soft-light">
<path d="M31.3077 18.7113C31.3077 18.7113 23.758 14.5673 23.38 19.6269C23.0355 24.344 25.3464 25.515 25.5748 24.7406C25.8032 23.9661 29.3592 18.9046 31.3077 18.7113Z" fill="#0B111D" fill-opacity="0.7"/>
</g>
<path d="M40.0163 26.0639C41.5483 23.4104 40.5051 20.9212 37.169 16.7173C34.9085 13.8597 29.0762 13.0626 26.4065 20.5229C23.7368 27.9831 37.9556 29.6221 40.0163 26.0639Z" fill="url(#paint1_linear_488_44499)"/>
<path style="mix-blend-mode:multiply" d="M38.5801 20.9727C38.1809 19.647 37.4455 17.7475 34.9434 16.6986C32.4413 15.6498 29.0407 16.0904 26.3641 20.587C23.6876 25.0837 40.4953 27.3369 38.5801 20.9727Z" fill="url(#paint2_radial_488_44499)"/>
<path d="M35.764 20.5378C37.1957 19.1947 40.2108 20.5446 43.406 22.1761C44.7481 22.8604 45.6072 24.0107 45.5091 25.387C45.3739 27.2928 41.9019 32.2979 36.839 36.7432C29.1717 42.242 33.8325 32.1996 34.566 29.9818C35.2996 27.7639 34.0285 22.1674 35.764 20.5378Z" fill="url(#paint3_linear_488_44499)"/>
<path style="mix-blend-mode:multiply" d="M35.7639 20.5379C36.1704 20.157 36.7028 19.9927 37.332 19.9893C41.493 21.4998 46.1112 24.0515 44.1134 28.0466C42.9716 30.3308 38.2395 34.7296 38.2395 34.7296C38.2395 34.7296 35.4387 23.0512 35.3301 21.1388C35.439 20.915 35.5858 20.7116 35.7639 20.5379Z" fill="url(#paint4_radial_488_44499)"/>
<path d="M40.4504 24.4534C41.0904 23.3447 39.2698 21.0933 36.3817 19.4258C33.4936 17.7584 30.6323 17.3067 29.9922 18.4154C29.6383 19.0285 30.3423 20.0908 30.4078 20.7797C30.6754 23.6288 27.1342 27.1853 27.1644 29.71C27.8503 27.232 30.0688 24.7713 31.2629 23.8065C32.2662 22.9964 33.961 23.5128 35.1337 24.0058C37.4952 25.1365 39.8627 25.4711 40.4504 24.4534Z" fill="url(#paint5_linear_488_44499)"/>
<g style="mix-blend-mode:soft-light">
<path d="M37.9225 20.8084C37.9225 20.8084 40.3454 23.12 39.5205 25.0057C38.2177 25.2535 36.3369 24.5828 35.1239 24.0036C34.4427 23.7153 33.5849 23.4236 32.7894 23.386C33.5689 21.1333 35.0957 18.7563 37.9225 20.8084Z" fill="#0B111D"/>
</g>
<path d="M33.7898 20.603C34.6421 21.57 34.5344 22.7679 34.2459 23.6772C34.4725 23.7499 34.6919 23.8297 34.8986 23.9119C35.6041 23.4727 36.5487 23.1489 37.6055 23.4748C38.549 23.7658 39.1758 22.4266 37.9275 20.8109C36.6792 19.1952 35.6337 18.22 34.0771 17.5088C32.5206 16.7975 31.6472 18.1737 33.7898 20.603Z" fill="url(#paint6_linear_488_44499)"/>
<path d="M34.8984 23.912C35.6039 23.4728 36.5485 23.149 37.6053 23.4749C37.7768 23.5373 37.9659 23.5316 38.1338 23.4589C38.3018 23.3861 38.4358 23.2518 38.5084 23.0835C38.2127 23.7036 37.8686 24.2996 37.4794 24.8658C36.5924 24.6248 35.7287 24.3056 34.8984 23.912Z" fill="url(#paint7_linear_488_44499)"/>
<path d="M32.8993 17.4172C32.2691 17.748 32.3089 18.9245 33.7931 20.6053C34.6454 21.5723 34.5377 22.7702 34.2492 23.6796C34.3866 23.7201 32.3571 22.9281 31.2664 23.8088C30.0675 24.7709 27.8566 27.2295 27.1679 29.7123C27.1377 27.1876 30.6789 23.6312 30.4113 20.782C30.3741 20.5203 30.3061 20.2641 30.2086 20.0188C31.1422 18.7081 32.4895 17.5586 32.8993 17.4172Z" fill="url(#paint8_linear_488_44499)"/>
<path d="M34.8646 19.7523C34.2702 19.3025 32.9875 18.5877 32.7833 19.1532C33.0512 19.6803 33.3897 20.1681 33.7894 20.6032C34.1381 20.9929 34.3619 21.4788 34.4317 21.9983C35.3702 22.6015 36.2276 22.788 36.5951 22.5639C37.0415 22.2837 36.5121 20.9942 34.8646 19.7523Z" fill="url(#paint9_linear_488_44499)"/>
<path d="M34.427 21.9954C35.3655 22.5987 36.223 22.7852 36.5904 22.5611C36.7371 22.4713 36.7794 22.2728 36.7141 22.0041C36.7608 22.1113 36.7822 22.2278 36.7766 22.3448C36.771 22.4618 36.7386 22.576 36.6819 22.6785C36.544 22.9277 36.3887 23.1668 36.2172 23.3941C35.7509 23.4829 35.3053 23.6599 34.9044 23.9156C34.6977 23.8334 34.4784 23.7537 34.2517 23.681C34.5888 22.5315 34.423 21.9689 34.427 21.9954Z" fill="url(#paint10_linear_488_44499)"/>
<path d="M36.5021 22.3531C36.6488 22.2633 36.7781 22.2721 36.7129 22.0034C36.7129 22.0034 36.8777 22.4507 36.6164 22.6246C36.2524 22.8652 35.3949 22.6787 34.4417 22.0702C34.4383 22.045 34.4334 22.02 34.427 21.9954C35.3715 22.6022 36.1371 22.5785 36.5021 22.3531Z" fill="#4F4E42"/>
<g style="mix-blend-mode:soft-light">
<g style="mix-blend-mode:multiply">
<path d="M29.9922 18.4159C29.7735 19.4577 30.9541 19.7838 31.2372 20.9344C31.5204 22.0849 30.6856 22.8566 30.0946 24.2229C33.2108 19.859 34.5845 24.3613 38.1943 25.0043C37.3487 24.8643 36.5237 24.6213 35.7377 24.2807C35.1672 24.0402 32.6074 22.7206 31.2628 23.807C30.0322 24.8575 28.9799 26.1014 28.1474 27.4897C28.0555 27.4118 27.9682 27.3285 27.8861 27.2403C28.8991 25.1402 30.5958 22.7837 30.4078 20.7802C30.3422 20.0913 29.6382 19.029 29.9922 18.4159Z" fill="#0B111D" fill-opacity="0.7"/>
</g>
</g>
<path d="M40.5714 24.0602C40.3948 25.879 36.9429 24.8731 35.1322 24.0087C33.9609 23.5133 32.2647 22.9993 31.2628 23.8069C30.0639 24.7691 27.8531 27.2276 27.1643 29.7105C27.1341 27.1857 30.6753 23.6293 30.4077 20.7802C30.3401 20.0949 29.6382 19.0289 29.9921 18.4159C30.0632 18.2963 30.1593 18.1936 30.2737 18.1148C30.2737 18.1148 23.7756 21.6749 22.3496 24.5042C21.0665 26.7266 20.715 29.3655 21.3724 31.8403C22.0297 34.3152 23.6422 36.4233 25.855 37.7008C28.0678 38.9784 30.6997 39.3208 33.1716 38.6527C35.6436 37.9845 37.7532 36.3607 39.0363 34.1383C40.7748 31.4893 40.5714 24.0602 40.5714 24.0602Z" fill="url(#paint11_linear_488_44499)"/>
<g style="mix-blend-mode:soft-light">
<path d="M34.0859 28.0662C32.7901 25.0757 26.3597 24.7072 23.9291 20.5284C23.6089 22.6376 22.1995 26.1987 21.7959 30.0739C21.5949 32.6508 23.33 34.2342 24.5628 34.8264C25.9358 35.485 26.461 35.6202 27.4377 35.483C29.9111 35.1356 35.6339 31.6481 34.0859 28.0662Z" fill="#0B111D" fill-opacity="0.7"/>
</g>
<g style="mix-blend-mode:soft-light">
<path d="M43.1205 28.1195C43.1205 28.1195 39.9574 25.7973 36.9737 27.4688C33.9899 29.1403 34.127 33.6976 30.2888 35.9243C26.4505 38.1509 40.9227 36.5259 43.1205 28.1195Z" fill="#0B111D" fill-opacity="0.7"/>
</g>
<path d="M45.5139 25.39C44.3167 30.2497 38.4267 26.9783 35.4105 31.1884C31.9129 36.0624 26.752 38.0153 23.2442 35.4877C25.0948 37.729 27.4516 38.4042 27.4516 38.4042C28.8009 38.8571 30.2346 39.0048 31.65 38.8369C33.0654 38.669 34.4273 38.1895 35.6383 37.4329C35.9571 37.2261 36.241 37.0297 36.4694 36.8514C38.1721 35.521 41.1102 32.3935 43.0557 29.8011C45.0012 27.2087 45.536 25.5384 45.5139 25.39Z" fill="#4F4E42"/>
<path d="M45.2587 25.8647C44.0718 30.5845 38.5781 27.5386 35.6453 31.6405C32.2473 36.391 26.3403 37.7461 22.9898 35.3225C24.7612 37.5539 27.944 38.6949 27.944 38.6949C29.2368 39.1237 30.6129 39.256 31.9738 39.0825C33.3347 38.9091 34.6467 38.434 35.8157 37.6914C36.1236 37.4885 36.3977 37.296 36.6185 37.1214C38.2642 35.8189 41.1103 32.7649 42.9988 30.2372C44.8873 27.7094 45.2787 26.0084 45.2587 25.8647Z" fill="url(#paint12_linear_488_44499)"/>
<path d="M21.5862 26.4139C21.5297 26.5703 21.4724 26.7505 21.4165 26.9476L21.4297 26.9552C21.0512 28.4091 21.0148 29.93 21.3233 31.3978C21.6319 32.8656 22.2769 34.2402 23.2075 35.4129C23.9362 36.3296 27.2133 36.3509 29.986 34.2312C31.9433 32.7329 35.0938 29.3822 31.0723 27.335C27.5612 25.5486 25.5025 23.8543 24.5817 21.4681C23.6104 19.4534 23.2413 17.7217 23.7705 16.961C23.7705 16.961 23.2857 17.6391 23.1922 19.3864C23.0987 21.1337 22.2381 24.6385 21.5862 26.4139Z" fill="#4F4E42"/>
<path d="M21.3257 26.4924C21.2711 26.6446 21.2157 26.8198 21.1617 27.0116L21.1748 27.0191C20.8102 28.4339 20.7807 29.9154 21.0888 31.3466C21.3968 32.7779 22.0339 34.1196 22.9497 35.2659C23.6668 36.1619 26.8749 36.1961 29.5806 34.1425C31.4905 32.6908 34.5609 29.4395 30.6157 27.4286C27.1713 25.6739 25.149 24.0149 24.2378 21.6865C23.2787 19.7197 23.2593 17.7308 23.7743 16.9919C23.7743 16.9919 22.9523 17.9503 22.8691 19.6528C22.7859 21.3553 21.9566 24.7654 21.3257 26.4924Z" fill="url(#paint13_linear_488_44499)"/>
<path d="M31.1486 24.1842C30.3138 24.8912 29.6766 25.3136 29.0233 26.1918L29.0101 26.1841C29.6809 25.2708 30.4562 24.4394 31.3202 23.7069C32.3228 22.898 34.0183 23.4133 35.1896 23.9086C36.8037 24.679 39.7219 25.556 40.4607 24.4575C39.8323 25.7102 36.9464 25.2512 35.2862 24.4575C34.1156 23.961 32.1519 23.3741 31.1486 24.1842Z" fill="#4F4E42"/>
<path d="M28.5764 25.9132C29.5172 24.1834 30.1671 22.3813 30.0228 20.7924C29.9552 20.1071 29.643 19.0314 29.9969 18.4184C30.0053 18.4038 30.0144 18.3881 30.0228 18.3735C29.7397 18.992 30.4046 20.0107 30.4628 20.676C30.6143 22.2998 29.5316 24.1529 28.5764 25.9132Z" fill="#BDBBB3"/>
<path d="M34.0771 17.5092C34.363 17.6388 34.6416 17.784 34.9116 17.9442C34.6557 17.7941 34.3923 17.6571 34.1224 17.5338C32.5943 16.8373 31.7262 18.1988 33.8272 20.5943C34.6635 21.5473 34.5536 22.7294 34.2669 23.6301C34.488 23.7012 34.7037 23.7789 34.9068 23.859C35.604 23.4231 36.5342 23.0991 37.574 23.4183C38.5004 23.7027 38.1927 22.0714 37.4883 20.6626C37.2093 20.1047 37.2282 19.944 36.9022 19.5894C37.2377 19.9527 37.5757 20.3563 37.9291 20.814C39.1811 22.4317 38.5418 23.9211 37.5983 23.6301C36.5398 23.3016 35.6054 23.4707 34.8985 23.9123C34.6918 23.8302 34.4725 23.7504 34.2458 23.6777C34.5344 22.7683 34.1142 21.6297 33.2618 20.6626C31.1192 18.2333 32.5188 16.7953 34.0771 17.5092Z" fill="#4F4E42"/>
</g>
<defs>
<filter id="filter0_d_488_44499" x="0.877686" y="0.666016" width="64.639" height="64.4906" filterUnits="userSpaceOnUse" color-interpolation-filters="sRGB">
<feFlood flood-opacity="0" result="BackgroundImageFix"/>
<feColorMatrix in="SourceAlpha" type="matrix" values="0 0 0 0 0 0 0 0 0 0 0 0 0 0 0 0 0 0 127 0" result="hardAlpha"/>
<feOffset dy="6"/>
<feGaussianBlur stdDeviation="10"/>
<feComposite in2="hardAlpha" operator="out"/>
<feColorMatrix type="matrix" values="0 0 0 0 0.964706 0 0 0 0 0.976471 0 0 0 0 0.984314 0 0 0 0.3 0"/>
<feBlend mode="normal" in2="BackgroundImageFix" result="effect1_dropShadow_488_44499"/>
<feBlend mode="normal" in="SourceGraphic" in2="effect1_dropShadow_488_44499" result="shape"/>
</filter>
<linearGradient id="paint0_linear_488_44499" x1="27.0213" y1="23.2077" x2="22.9618" y2="22.1868" gradientUnits="userSpaceOnUse">
<stop stop-color="#F4F7F9"/>
<stop offset="1" stop-color="#D1CDC8"/>
</linearGradient>
<linearGradient id="paint1_linear_488_44499" x1="37.0737" y1="31.1607" x2="27.0103" y2="28.8616" gradientUnits="userSpaceOnUse">
<stop stop-color="#F4F7F9"/>
<stop offset="1" stop-color="#D1CDC8"/>
</linearGradient>
<radialGradient id="paint2_radial_488_44499" cx="0" cy="0" r="1" gradientUnits="userSpaceOnUse" gradientTransform="translate(32.6392 21.7706) rotate(-150) scale(5.79214 5.81731)">
<stop stop-color="#9D998A"/>
<stop offset="0.21" stop-color="#A4A08D"/>
<stop offset="0.67" stop-color="#ACAAA1"/>
<stop offset="0.97" stop-color="#D9D6D1"/>
</radialGradient>
<linearGradient id="paint3_linear_488_44499" x1="37.1401" y1="40.6462" x2="29.5088" y2="37.7259" gradientUnits="userSpaceOnUse">
<stop stop-color="#F4F7F9"/>
<stop offset="1" stop-color="#D1CDC8"/>
</linearGradient>
<radialGradient id="paint4_radial_488_44499" cx="0" cy="0" r="1" gradientUnits="userSpaceOnUse" gradientTransform="translate(40.5184 29.1471) rotate(-150) scale(5.20429 5.2269)">
<stop stop-color="#A5A191"/>
<stop offset="0.26" stop-color="#B3B0A3"/>
<stop offset="0.84" stop-color="#CDCCC9"/>
<stop offset="0.97" stop-color="#EAEAEA"/>
</radialGradient>
<linearGradient id="paint5_linear_488_44499" x1="38.1449" y1="30.1872" x2="35.6788" y2="22.3885" gradientUnits="userSpaceOnUse">
<stop stop-color="#CCCBCD"/>
<stop offset="1" stop-color="#AAA89E"/>
</linearGradient>
<linearGradient id="paint6_linear_488_44499" x1="38.6703" y1="23.9333" x2="31.851" y2="20.3494" gradientUnits="userSpaceOnUse">
<stop stop-color="#C8C8BF"/>
<stop offset="1" stop-color="#928E85"/>
</linearGradient>
<linearGradient id="paint7_linear_488_44499" x1="37.2822" y1="25.2883" x2="35.4073" y2="24.834" gradientUnits="userSpaceOnUse">
<stop stop-color="#F4F7F9"/>
<stop offset="1" stop-color="#D1CDC8"/>
</linearGradient>
<linearGradient id="paint8_linear_488_44499" x1="29.8722" y1="31.2736" x2="26.3293" y2="29.7015" gradientUnits="userSpaceOnUse">
<stop stop-color="#F4F7F9"/>
<stop offset="1" stop-color="#D1CDC8"/>
</linearGradient>
<linearGradient id="paint9_linear_488_44499" x1="32.5237" y1="21.2878" x2="36.9803" y2="20.4472" gradientUnits="userSpaceOnUse">
<stop stop-color="#ACA9A0"/>
<stop offset="1" stop-color="#C5C3BB"/>
</linearGradient>
<linearGradient id="paint10_linear_488_44499" x1="35.6411" y1="24.4831" x2="34.0785" y2="24.0048" gradientUnits="userSpaceOnUse">
<stop stop-color="#F4F7F9"/>
<stop offset="1" stop-color="#D1CDC8"/>
</linearGradient>
<linearGradient id="paint11_linear_488_44499" x1="34.2037" y1="42.5209" x2="21.0634" y2="39.0388" gradientUnits="userSpaceOnUse">
<stop stop-color="#F4F7F9"/>
<stop offset="1" stop-color="#D1CDC8"/>
</linearGradient>
<linearGradient id="paint12_linear_488_44499" x1="35.6021" y1="43.316" x2="25.477" y2="39.9075" gradientUnits="userSpaceOnUse">
<stop stop-color="#F4F7F9"/>
<stop offset="1" stop-color="#D1CDC8"/>
</linearGradient>
<linearGradient id="paint13_linear_488_44499" x1="28.108" y1="38.3204" x2="18.2677" y2="35.392" gradientUnits="userSpaceOnUse">
<stop stop-color="#F4F7F9"/>
<stop offset="1" stop-color="#D1CDC8"/>
</linearGradient>
</defs>
</svg>
