<svg width="138" height="94" viewBox="0 0 138 94" fill="none" xmlns="http://www.w3.org/2000/svg">
<g clip-path="url(#clip0_27_3318)">
<rect x="21" y="20" width="47" height="47" rx="10.5566" fill="#313037"/>
<path d="M45.9728 34.057C40.6594 34.9692 36.7527 29.152 35.4636 26.1294C34.0624 29.4416 32.5883 36.7068 37.9018 39.2696C43.2152 41.8325 45.4964 36.8624 45.9728 34.057Z" fill="#F63413"/>
<path d="M45.3929 36.3449C50.087 35.5425 53.5383 40.6592 54.6771 43.3179C55.915 40.4045 57.2173 34.0142 52.5232 31.76C47.8291 29.5057 45.8138 33.8773 45.3929 36.3449Z" fill="#FF7365"/>
<path d="M55.4355 42.7272C51.8183 42.7272 50.2862 42.5463 48.2681 37.823C46.0744 42.9989 39.9498 47.5028 48.2681 51.5078C56.5863 55.5127 54.6897 47.1111 55.4355 42.7272Z" fill="#0EBEFE"/>
<path d="M35.0219 52.3642C38.5421 52.3642 38.8838 48.4902 42.6499 46.0737C44.7847 49.63 45.9094 57.5005 37.8141 60.2522C29.7188 63.004 35.7477 55.3764 35.0219 52.3642Z" fill="#04D459"/>
<path d="M47.2058 44.2293C43.6203 44.2293 43.2723 40.8094 39.4365 38.6763C37.2621 41.8156 31.1912 44.5474 39.4364 46.9766C47.6817 49.4057 46.4665 46.8883 47.2058 44.2293Z" fill="#9742FF"/>
<g filter="url(#filter0_b_27_3318)">
<rect x="12.9019" y="29.3931" width="45.7628" height="45.8353" rx="22.8814" fill="black" fill-opacity="0.8"/>
</g>
<path d="M46.1404 31.8433C39.2541 33.0258 34.191 25.4849 32.5203 21.5667C30.7043 25.8603 28.7938 35.2782 35.6801 38.6005C42.5665 41.9228 45.523 35.48 46.1404 31.8433Z" fill="url(#paint0_linear_27_3318)"/>
<path d="M44.6578 34.7335C49.9891 33.8222 53.9089 39.6335 55.2024 42.6531C56.6083 39.3442 58.0874 32.0864 52.756 29.5261C47.4247 26.9658 45.1358 31.9309 44.6578 34.7335Z" fill="url(#paint1_linear_27_3318)"/>
<path d="M63.7024 46.049C59.5941 46.049 57.854 45.8436 55.5619 40.479C53.0705 46.3575 46.1144 51.473 55.5619 56.0216C65.0094 60.5703 62.8553 51.0281 63.7024 46.049Z" fill="url(#paint2_linear_27_3318)"/>
<path d="M33.7024 53.5869C37.7006 53.5869 38.0886 49.1869 42.366 46.4424C44.7907 50.4815 46.068 59.4204 36.8737 62.5457C27.6794 65.6711 34.5268 57.008 33.7024 53.5869Z" fill="url(#paint3_linear_27_3318)"/>
<path d="M47.5408 44.3476C43.4686 44.3476 43.0733 40.4635 38.7167 38.0408C36.2472 41.6063 29.3521 44.709 38.7167 47.4679C48.0813 50.2268 46.7011 47.3676 47.5408 44.3476Z" fill="url(#paint4_linear_27_3318)"/>
<g filter="url(#filter1_b_27_3318)">
<rect x="14.428" y="13" width="60.6243" height="60.7067" rx="13.3439" fill="black" fill-opacity="0.01"/>
</g>
<g filter="url(#filter2_b_27_3318)">
<rect x="13.3137" y="15.1184" width="47.0682" height="47.1408" rx="23.5341" fill="black" fill-opacity="0.02"/>
</g>
<g filter="url(#filter3_b_27_3318)">
<rect x="28.1665" y="21.2139" width="38.9455" height="39.018" rx="19.4728" transform="rotate(-9.46832 28.1665 21.2139)" fill="black" fill-opacity="0.02"/>
</g>
<g style="mix-blend-mode:hard-light" opacity="0.6" filter="url(#filter4_f_27_3318)">
<rect x="21.3672" y="20.3672" width="46.2656" height="46.2656" rx="10.1895" stroke="url(#paint5_linear_27_3318)" stroke-width="0.734375"/>
</g>
</g>
<rect x="21.1377" y="20.1377" width="46.7246" height="46.7246" rx="10.4189" stroke="#1D1C1C" stroke-opacity="0.5" stroke-width="0.275391"/>
<g filter="url(#filter5_d_27_3318)">
<path d="M28.6091 18.4475C33.3868 17.9472 38.4128 21.206 38.4128 21.206L40.0904 22.3146C37.9976 23.5249 33.0099 26.5258 29.017 29.8803C25.6616 23.1967 25.4102 18.7848 28.6091 18.4475Z" fill="url(#paint6_linear_27_3318)"/>
<g style="mix-blend-mode:soft-light">
<path d="M43.3335 23.0415C43.3335 23.0415 26.9758 14.063 26.1566 25.0253C25.4104 35.2457 30.4173 37.783 30.9121 36.105C31.4069 34.427 39.1117 23.4603 43.3335 23.0415Z" fill="#0B111D" fill-opacity="0.7"/>
</g>
<path d="M62.202 38.9719C65.5213 33.2227 63.261 27.8295 56.0327 18.7209C51.1351 12.5294 38.4983 10.8025 32.714 26.9663C26.9297 43.1301 57.737 46.6813 62.202 38.9719Z" fill="url(#paint7_linear_27_3318)"/>
<path style="mix-blend-mode:multiply" d="M59.0902 27.9411C58.2254 25.0686 56.632 20.953 51.2108 18.6805C45.7895 16.4081 38.4216 17.3626 32.6223 27.1054C26.8231 36.8481 63.2398 41.7302 59.0902 27.9411Z" fill="url(#paint8_radial_27_3318)"/>
<path d="M52.9888 26.9989C56.0907 24.089 62.6236 27.0137 69.5464 30.5485C72.4542 32.0314 74.3157 34.5237 74.1031 37.5056C73.8102 41.6348 66.2875 52.4792 55.318 62.1106C38.7054 74.0248 48.8038 52.2662 50.3932 47.4609C51.9825 42.6556 49.2285 30.5299 52.9888 26.9989Z" fill="url(#paint9_linear_27_3318)"/>
<path style="mix-blend-mode:multiply" d="M52.9886 26.9989C53.8692 26.1738 55.0228 25.8177 56.3862 25.8103C65.4015 29.0832 75.4077 34.6118 71.0792 43.268C68.6052 48.2171 58.3525 57.7477 58.3525 57.7477C58.3525 57.7477 52.2841 32.4446 52.0487 28.3009C52.2847 27.816 52.6027 27.3755 52.9886 26.9989Z" fill="url(#paint10_radial_27_3318)"/>
<path d="M63.1424 35.4828C64.5293 33.0807 60.5846 28.2026 54.3271 24.5898C48.0695 20.977 41.87 19.9984 40.4831 22.4004C39.7162 23.7288 41.2416 26.0305 41.3836 27.5231C41.9633 33.6962 34.2907 41.4018 34.3562 46.872C35.8424 41.5031 40.6491 36.1717 43.2362 34.0811C45.4101 32.326 49.0821 33.4449 51.623 34.5129C56.7396 36.9629 61.8693 37.6879 63.1424 35.4828Z" fill="url(#paint11_linear_27_3318)"/>
<g style="mix-blend-mode:soft-light">
<path d="M57.6654 27.5853C57.6654 27.5853 62.9149 32.5938 61.1277 36.6793C58.305 37.2162 54.2299 35.7631 51.6018 34.5082C50.1258 33.8836 48.2672 33.2515 46.5437 33.1701C48.2325 28.2892 51.5406 23.1391 57.6654 27.5853Z" fill="#0B111D"/>
</g>
<path d="M48.7111 27.1401C50.5579 29.2353 50.3245 31.8308 49.6993 33.801C50.1904 33.9585 50.6656 34.1314 51.1134 34.3094C52.6421 33.3579 54.6887 32.6563 56.9785 33.3623C59.0226 33.993 60.3808 31.0913 57.6761 27.5906C54.9714 24.0899 52.7062 21.9771 49.3336 20.436C45.9611 18.8948 44.0688 21.8766 48.7111 27.1401Z" fill="url(#paint12_linear_27_3318)"/>
<path d="M51.113 34.3096C52.6417 33.3581 54.6882 32.6565 56.9781 33.3625C57.3496 33.4979 57.7594 33.4855 58.1232 33.3279C58.4871 33.1702 58.7775 32.8792 58.9348 32.5146C58.294 33.8582 57.5485 35.1495 56.7053 36.3763C54.7835 35.8541 52.9121 35.1625 51.113 34.3096Z" fill="url(#paint13_linear_27_3318)"/>
<path d="M46.7817 20.2375C45.4164 20.9544 45.5026 23.5033 48.7183 27.1451C50.5651 29.2403 50.3317 31.8358 49.7065 33.806C50.0043 33.8939 45.6071 32.1778 43.2437 34.086C40.6462 36.1706 35.856 41.4975 34.3638 46.877C34.2983 41.4067 41.9708 33.7011 41.3911 27.528C41.3106 26.961 41.1631 26.4059 40.9518 25.8743C42.9748 23.0345 45.8938 20.544 46.7817 20.2375Z" fill="url(#paint14_linear_27_3318)"/>
<path d="M51.0402 25.2969C49.7523 24.3223 46.973 22.7737 46.5306 23.9989C47.1112 25.141 47.8446 26.198 48.7106 27.1406C49.4661 27.9849 49.9508 29.0377 50.1021 30.1632C52.1356 31.4702 53.9934 31.8743 54.7894 31.3888C55.7568 30.7817 54.6097 27.9878 51.0402 25.2969Z" fill="url(#paint15_linear_27_3318)"/>
<path d="M50.092 30.1571C52.1254 31.4641 53.9832 31.8682 54.7793 31.3827C55.0972 31.1882 55.1887 30.758 55.0474 30.1759C55.1486 30.408 55.1949 30.6606 55.1827 30.914C55.1706 31.1675 55.1004 31.4149 54.9774 31.6371C54.6788 32.177 54.3424 32.6951 53.9708 33.1876C52.9603 33.38 51.9949 33.7635 51.1263 34.3175C50.6784 34.1394 50.2032 33.9666 49.7121 33.809C50.4425 31.3185 50.0833 30.0996 50.092 30.1571Z" fill="url(#paint16_linear_27_3318)"/>
<path d="M54.5879 30.9322C54.9058 30.7377 55.186 30.7567 55.0446 30.1746C55.0446 30.1746 55.4016 31.1438 54.8356 31.5205C54.0468 32.0417 52.189 31.6376 50.1238 30.3192C50.1164 30.2647 50.1057 30.2106 50.0918 30.1573C52.1383 31.4719 53.7971 31.4206 54.5879 30.9322Z" fill="white"/>
<g style="mix-blend-mode:soft-light">
<g style="mix-blend-mode:multiply">
<path d="M40.4832 22.4014C40.0094 24.6585 42.5672 25.3652 43.1807 27.8581C43.7942 30.3509 41.9855 32.0229 40.705 34.9833C47.4569 25.5281 50.4331 35.283 58.2543 36.6764C56.4223 36.3729 54.6348 35.8463 52.9317 35.1084C51.6956 34.5873 46.1495 31.7283 43.2362 34.0821C40.5698 36.3581 38.2899 39.0532 36.4861 42.0612C36.2869 41.8924 36.0978 41.712 35.9199 41.5208C38.1148 36.9706 41.7909 31.865 41.3836 27.5241C41.2416 26.0315 39.7162 23.7297 40.4832 22.4014Z" fill="#0B111D" fill-opacity="0.7"/>
</g>
</g>
<path d="M63.4048 34.6308C63.022 38.5715 55.5431 36.3922 51.6198 34.5192C49.082 33.446 45.4069 32.3322 43.2361 34.0821C40.6385 36.1667 35.8483 41.4936 34.3561 46.8731C34.2906 41.4029 41.9632 33.6972 41.3834 27.5241C41.2369 26.0394 39.7161 23.7298 40.483 22.4014C40.6369 22.1424 40.8451 21.9198 41.0931 21.7491C41.0931 21.7491 27.0139 29.4626 23.9242 35.5928C21.1441 40.408 20.3825 46.1256 21.8068 51.4878C23.2312 56.85 26.7248 61.4175 31.5192 64.1855C36.3136 66.9536 42.016 67.6954 47.3719 66.2478C52.7279 64.8002 57.2986 61.2818 60.0787 56.4666C63.8454 50.7273 63.4048 34.6308 63.4048 34.6308Z" fill="url(#paint17_linear_27_3318)"/>
<g style="mix-blend-mode:soft-light">
<path d="M49.353 43.3103C46.5453 36.8309 32.6128 36.0325 27.3464 26.9785C26.6527 31.5484 23.5991 39.264 22.7246 47.6602C22.289 53.2437 26.0484 56.6743 28.7195 57.9574C31.6944 59.3844 32.8322 59.6773 34.9485 59.3801C40.3075 58.6273 52.7068 51.071 49.353 43.3103Z" fill="#0B111D" fill-opacity="0.7"/>
</g>
<g style="mix-blend-mode:soft-light">
<path d="M68.9277 43.4261C68.9277 43.4261 62.0743 38.3947 55.6095 42.0163C49.1448 45.6379 49.4418 55.5121 41.1256 60.3364C32.8094 65.1607 64.1659 61.6399 68.9277 43.4261Z" fill="#0B111D" fill-opacity="0.7"/>
</g>
<path d="M74.1136 37.5121C71.5196 48.0413 58.7579 40.9534 52.2228 50.0752C44.6446 60.6356 33.4627 64.867 25.8626 59.3904C29.8723 64.2466 34.9785 65.7095 34.9785 65.7095C37.9021 66.6907 41.0085 67.0109 44.0751 66.647C47.1417 66.2832 50.0926 65.2444 52.7163 63.6051C53.4072 63.157 54.0223 62.7315 54.5172 62.3452C58.2062 59.4627 64.5721 52.6863 68.7874 47.0694C73.0026 41.4525 74.1614 37.8337 74.1136 37.5121Z" fill="white"/>
<path d="M73.5605 38.5406C70.989 48.7669 59.0859 42.1673 52.7315 51.0549C45.3693 61.3476 32.5707 64.2836 25.3113 59.0324C29.1495 63.8672 36.0454 66.3393 36.0454 66.3393C38.8464 67.2683 41.8281 67.5551 44.7767 67.1793C47.7253 66.8034 50.5679 65.7741 53.1007 64.1651C53.7678 63.7254 54.3619 63.3084 54.8402 62.9301C58.4058 60.108 64.5723 53.491 68.6641 48.0143C72.7559 42.5375 73.604 38.852 73.5605 38.5406Z" fill="url(#paint18_linear_27_3318)"/>
<path d="M22.2702 39.7306C22.1478 40.0694 22.0235 40.4597 21.9024 40.8868L21.9312 40.9034C21.1111 44.0534 21.0321 47.3487 21.7006 50.5289C22.3691 53.7092 23.7667 56.6874 25.783 59.2284C27.3617 61.2145 34.4622 61.2606 40.4698 56.6681C44.7106 53.4215 51.5367 46.1618 42.8233 41.7262C35.216 37.8556 30.7555 34.1848 28.7603 29.0146C26.6559 24.6493 25.8562 20.8974 27.0029 19.2493C27.0029 19.2493 25.9525 20.7185 25.7498 24.5043C25.5472 28.29 23.6827 35.8837 22.2702 39.7306Z" fill="white"/>
<path d="M21.7059 39.9006C21.5874 40.2302 21.4673 40.6099 21.3505 41.0255L21.3787 41.0418C20.5888 44.1072 20.525 47.3171 21.1924 50.418C21.8599 53.519 23.2402 56.4261 25.2245 58.9098C26.7781 60.8511 33.7291 60.9251 39.5914 56.4757C43.7295 53.3303 50.3821 46.2858 41.8341 41.9289C34.3712 38.1271 29.9896 34.5326 28.0153 29.4876C25.9373 25.2264 25.8953 20.9169 27.0111 19.316C27.0111 19.316 25.2301 21.3926 25.0498 25.0813C24.8694 28.7701 23.0728 36.1587 21.7059 39.9006Z" fill="url(#paint19_linear_27_3318)"/>
<path d="M42.9887 34.8995C41.1799 36.4314 39.7993 37.3467 38.384 39.2493L38.3552 39.2327C39.8086 37.2539 41.4886 35.4524 43.3604 33.8653C45.5327 32.1128 49.2063 33.2292 51.7442 34.3024C55.2414 35.9715 61.5641 37.8718 63.1648 35.4917C61.8033 38.2059 55.5506 37.2114 51.9536 35.4917C49.4172 34.4159 45.1625 33.1444 42.9887 34.8995Z" fill="white"/>
<path d="M37.4156 38.6457C39.454 34.8978 40.8621 30.9933 40.5496 27.5506C40.403 26.0659 39.7266 23.7353 40.4935 22.4069C40.5117 22.3754 40.5314 22.3413 40.5496 22.3098C39.9362 23.6498 41.3767 25.8571 41.5029 27.2986C41.8311 30.8168 39.4852 34.8317 37.4156 38.6457Z" fill="#EFD8DE"/>
<path d="M49.3337 20.4369C49.9533 20.7177 50.557 21.0324 51.142 21.3794C50.5874 21.0542 50.0167 20.7574 49.432 20.4901C46.1211 18.9811 44.2402 21.9309 48.7923 27.1213C50.6044 29.186 50.3663 31.7473 49.745 33.6987C50.2241 33.8528 50.6915 34.0212 51.1315 34.1947C52.6422 33.2503 54.6576 32.5482 56.9104 33.2399C58.9175 33.8562 58.2509 30.3217 56.7247 27.2692C56.1203 26.0604 56.1612 25.7123 55.4548 24.9439C56.1817 25.7312 56.9141 26.6055 57.6799 27.5972C60.3924 31.1024 59.0073 34.3294 56.9632 33.6987C54.6696 32.9871 52.6452 33.3536 51.1135 34.3104C50.6657 34.1323 50.1904 33.9594 49.6994 33.8019C50.3246 31.8317 49.4141 29.3645 47.5674 27.2693C42.9251 22.0058 45.9575 18.8901 49.3337 20.4369Z" fill="white"/>
</g>
<path d="M90.536 39.956C90.536 41.468 89.696 42.452 87.824 42.452H85.016V37.532H87.824C89.696 37.532 90.536 38.468 90.536 39.956ZM81.656 34.748V51.5H85.016V44.972H86.6L90.296 51.5H94.184L90.176 44.708C92.864 43.988 93.992 41.924 93.992 39.884C93.992 37.076 91.976 34.748 87.944 34.748H81.656ZM109.391 44.852C109.391 40.652 106.391 37.988 102.551 37.988C98.711 37.988 95.711 40.652 95.711 44.852C95.711 49.028 98.615 51.716 102.455 51.716C106.319 51.716 109.391 49.028 109.391 44.852ZM99.119 44.852C99.119 42.188 100.727 40.916 102.503 40.916C104.279 40.916 105.935 42.188 105.935 44.852C105.935 47.492 104.231 48.788 102.455 48.788C100.655 48.788 99.119 47.492 99.119 44.852ZM121.696 47.708C121.6 42.836 114.232 44.348 114.232 41.924C114.232 41.156 114.88 40.652 116.128 40.652C117.448 40.652 118.264 41.348 118.36 42.38H121.576C121.384 39.74 119.44 37.988 116.224 37.988C112.936 37.988 110.968 39.764 110.968 41.972C110.968 46.844 118.48 45.332 118.48 47.708C118.48 48.476 117.76 49.076 116.44 49.076C115.096 49.076 114.16 48.308 114.04 47.3H110.656C110.8 49.772 113.128 51.716 116.464 51.716C119.704 51.716 121.696 49.988 121.696 47.708ZM129.686 40.748C131.414 40.748 132.806 41.852 132.854 43.604H126.542C126.806 41.78 128.078 40.748 129.686 40.748ZM135.998 47.324H132.374C131.942 48.212 131.15 48.932 129.71 48.932C128.03 48.932 126.686 47.828 126.518 45.86H136.238C136.31 45.428 136.334 44.996 136.334 44.564C136.334 40.604 133.622 37.988 129.782 37.988C125.846 37.988 123.11 40.652 123.11 44.852C123.11 49.028 125.918 51.716 129.782 51.716C133.07 51.716 135.278 49.772 135.998 47.324Z" fill="white"/>
<defs>
<filter id="filter0_b_27_3318" x="3.32866" y="19.8199" width="64.9091" height="64.9816" filterUnits="userSpaceOnUse" color-interpolation-filters="sRGB">
<feFlood flood-opacity="0" result="BackgroundImageFix"/>
<feGaussianBlur in="BackgroundImage" stdDeviation="4.7866"/>
<feComposite in2="SourceAlpha" operator="in" result="effect1_backgroundBlur_27_3318"/>
<feBlend mode="normal" in="SourceGraphic" in2="effect1_backgroundBlur_27_3318" result="shape"/>
</filter>
<filter id="filter1_b_27_3318" x="3.55513" y="2.12716" width="82.37" height="82.4525" filterUnits="userSpaceOnUse" color-interpolation-filters="sRGB">
<feFlood flood-opacity="0" result="BackgroundImageFix"/>
<feGaussianBlur in="BackgroundImage" stdDeviation="5.43642"/>
<feComposite in2="SourceAlpha" operator="in" result="effect1_backgroundBlur_27_3318"/>
<feBlend mode="normal" in="SourceGraphic" in2="effect1_backgroundBlur_27_3318" result="shape"/>
</filter>
<filter id="filter2_b_27_3318" x="3.74052" y="5.54521" width="66.2145" height="66.2873" filterUnits="userSpaceOnUse" color-interpolation-filters="sRGB">
<feFlood flood-opacity="0" result="BackgroundImageFix"/>
<feGaussianBlur in="BackgroundImage" stdDeviation="4.7866"/>
<feComposite in2="SourceAlpha" operator="in" result="effect1_backgroundBlur_27_3318"/>
<feBlend mode="normal" in="SourceGraphic" in2="effect1_backgroundBlur_27_3318" result="shape"/>
</filter>
<filter id="filter3_b_27_3318" x="21.534" y="8.16996" width="58.0985" height="58.1676" filterUnits="userSpaceOnUse" color-interpolation-filters="sRGB">
<feFlood flood-opacity="0" result="BackgroundImageFix"/>
<feGaussianBlur in="BackgroundImage" stdDeviation="4.7866"/>
<feComposite in2="SourceAlpha" operator="in" result="effect1_backgroundBlur_27_3318"/>
<feBlend mode="normal" in="SourceGraphic" in2="effect1_backgroundBlur_27_3318" result="shape"/>
</filter>
<filter id="filter4_f_27_3318" x="20.5" y="19.5" width="48" height="48" filterUnits="userSpaceOnUse" color-interpolation-filters="sRGB">
<feFlood flood-opacity="0" result="BackgroundImageFix"/>
<feBlend mode="normal" in="SourceGraphic" in2="BackgroundImageFix" result="shape"/>
<feGaussianBlur stdDeviation="0.25" result="effect1_foregroundBlur_27_3318"/>
</filter>
<filter id="filter5_d_27_3318" x="0.735107" y="0.276611" width="93.3845" height="93.063" filterUnits="userSpaceOnUse" color-interpolation-filters="sRGB">
<feFlood flood-opacity="0" result="BackgroundImageFix"/>
<feColorMatrix in="SourceAlpha" type="matrix" values="0 0 0 0 0 0 0 0 0 0 0 0 0 0 0 0 0 0 127 0" result="hardAlpha"/>
<feOffset dy="6"/>
<feGaussianBlur stdDeviation="10"/>
<feComposite in2="hardAlpha" operator="out"/>
<feColorMatrix type="matrix" values="0 0 0 0 0.862745 0 0 0 0 0.2 0 0 0 0 0.0941176 0 0 0 0.3 0"/>
<feBlend mode="normal" in2="BackgroundImageFix" result="effect1_dropShadow_27_3318"/>
<feBlend mode="normal" in="SourceGraphic" in2="effect1_dropShadow_27_3318" result="shape"/>
</filter>
<linearGradient id="paint0_linear_27_3318" x1="44.9885" y1="22.5117" x2="29.8941" y2="34.4906" gradientUnits="userSpaceOnUse">
<stop stop-color="#FF7262"/>
<stop offset="1" stop-color="#F31808"/>
</linearGradient>
<linearGradient id="paint1_linear_27_3318" x1="45.5496" y1="41.9248" x2="57.194" y2="32.6412" gradientUnits="userSpaceOnUse">
<stop stop-color="#FF7262"/>
<stop offset="1" stop-color="#F31808"/>
</linearGradient>
<linearGradient id="paint2_linear_27_3318" x1="62.7287" y1="41.36" x2="49.0292" y2="51.2181" gradientUnits="userSpaceOnUse">
<stop stop-color="#FF7262"/>
<stop offset="1" stop-color="#F31808"/>
</linearGradient>
<linearGradient id="paint3_linear_27_3318" x1="32.9305" y1="47.3251" x2="46.3303" y2="56.3231" gradientUnits="userSpaceOnUse">
<stop stop-color="#FF7262"/>
<stop offset="1" stop-color="#F31808"/>
</linearGradient>
<linearGradient id="paint4_linear_27_3318" x1="46.5189" y1="38.5957" x2="37.5661" y2="49.33" gradientUnits="userSpaceOnUse">
<stop stop-color="#FF7262"/>
<stop offset="1" stop-color="#F31808"/>
</linearGradient>
<linearGradient id="paint5_linear_27_3318" x1="51.7628" y1="20" x2="44.6073" y2="51.0521" gradientUnits="userSpaceOnUse">
<stop stop-color="white"/>
<stop offset="1" stop-color="white" stop-opacity="0"/>
</linearGradient>
<linearGradient id="paint6_linear_27_3318" x1="34.046" y1="32.7838" x2="25.2504" y2="30.5719" gradientUnits="userSpaceOnUse">
<stop stop-color="#F14226"/>
<stop offset="1" stop-color="#FF6D40"/>
</linearGradient>
<linearGradient id="paint7_linear_27_3318" x1="55.8263" y1="50.0149" x2="34.0223" y2="45.0336" gradientUnits="userSpaceOnUse">
<stop stop-color="#F14226"/>
<stop offset="1" stop-color="#FF6D40"/>
</linearGradient>
<radialGradient id="paint8_radial_27_3318" cx="0" cy="0" r="1" gradientUnits="userSpaceOnUse" gradientTransform="translate(46.2184 29.6697) rotate(-150) scale(12.5496 12.6042)">
<stop stop-color="#BF2245"/>
<stop offset="0.21" stop-color="#CB4D69"/>
<stop offset="0.67" stop-color="#EAB8C3"/>
<stop offset="0.97" stop-color="white"/>
</radialGradient>
<linearGradient id="paint9_linear_27_3318" x1="55.9703" y1="70.5672" x2="39.4358" y2="64.24" gradientUnits="userSpaceOnUse">
<stop stop-color="#F14226"/>
<stop offset="1" stop-color="#FF6D40"/>
</linearGradient>
<radialGradient id="paint10_radial_27_3318" cx="0" cy="0" r="1" gradientUnits="userSpaceOnUse" gradientTransform="translate(63.29 45.6524) rotate(-150) scale(11.276 11.325)">
<stop stop-color="#BF2245"/>
<stop offset="0.26" stop-color="#CF4D68"/>
<stop offset="0.84" stop-color="#F6B8C0"/>
<stop offset="0.97" stop-color="#FFD1D5"/>
</radialGradient>
<linearGradient id="paint11_linear_27_3318" x1="58.1474" y1="47.906" x2="52.8041" y2="31.0088" gradientUnits="userSpaceOnUse">
<stop stop-color="#FF7262"/>
<stop offset="1" stop-color="#F31808"/>
</linearGradient>
<linearGradient id="paint12_linear_27_3318" x1="59.2856" y1="34.3558" x2="44.5105" y2="26.5906" gradientUnits="userSpaceOnUse">
<stop stop-color="#FF7262"/>
<stop offset="1" stop-color="#F31808"/>
</linearGradient>
<linearGradient id="paint13_linear_27_3318" x1="56.278" y1="37.2916" x2="52.2158" y2="36.3074" gradientUnits="userSpaceOnUse">
<stop stop-color="#F14226"/>
<stop offset="1" stop-color="#FF6D40"/>
</linearGradient>
<linearGradient id="paint14_linear_27_3318" x1="40.2231" y1="50.2598" x2="32.5468" y2="46.8536" gradientUnits="userSpaceOnUse">
<stop stop-color="#F14226"/>
<stop offset="1" stop-color="#FF6D40"/>
</linearGradient>
<linearGradient id="paint15_linear_27_3318" x1="45.9683" y1="28.6238" x2="55.6241" y2="26.8025" gradientUnits="userSpaceOnUse">
<stop stop-color="#FF7262"/>
<stop offset="1" stop-color="#F31808"/>
</linearGradient>
<linearGradient id="paint16_linear_27_3318" x1="52.7225" y1="35.5471" x2="49.3369" y2="34.5106" gradientUnits="userSpaceOnUse">
<stop stop-color="#F14226"/>
<stop offset="1" stop-color="#FF6D40"/>
</linearGradient>
<linearGradient id="paint17_linear_27_3318" x1="49.608" y1="74.6291" x2="21.1373" y2="67.0845" gradientUnits="userSpaceOnUse">
<stop stop-color="#F14226"/>
<stop offset="1" stop-color="#FF6D40"/>
</linearGradient>
<linearGradient id="paint18_linear_27_3318" x1="52.638" y1="76.3518" x2="30.7003" y2="68.9666" gradientUnits="userSpaceOnUse">
<stop stop-color="#F14226"/>
<stop offset="1" stop-color="#FF6D40"/>
</linearGradient>
<linearGradient id="paint19_linear_27_3318" x1="36.4007" y1="65.5278" x2="15.0802" y2="59.183" gradientUnits="userSpaceOnUse">
<stop stop-color="#F14226"/>
<stop offset="1" stop-color="#FF6D40"/>
</linearGradient>
<clipPath id="clip0_27_3318">
<rect x="21" y="20" width="47" height="47" rx="10.5566" fill="white"/>
</clipPath>
</defs>
</svg>
