<svg width="21" height="20" viewBox="0 0 21 20" fill="none" xmlns="http://www.w3.org/2000/svg">
<path fill-rule="evenodd" clip-rule="evenodd" d="M3 9.99984C3 9.5396 3.3731 9.1665 3.83333 9.1665H17.1667C17.6269 9.1665 18 9.5396 18 9.99984V14.1665C18 16.0075 16.5076 17.4998 14.6667 17.4998H6.33333C4.49238 17.4998 3 16.0075 3 14.1665V9.99984ZM5.08333 10.8332C4.85321 10.8332 4.66667 11.0197 4.66667 11.2498V14.1665C4.66667 15.087 5.41286 15.8332 6.33333 15.8332H14.6667C15.5871 15.8332 16.3333 15.087 16.3333 14.1665V11.2498C16.3333 11.0197 16.1468 10.8332 15.9167 10.8332H5.08333Z" fill="#EF4444"/>
<path fill-rule="evenodd" clip-rule="evenodd" d="M16.3332 6.66667H4.6665C4.20627 6.66667 3.83317 7.03976 3.83317 7.5V8.33333C3.83317 8.79357 4.20627 9.16667 4.6665 9.16667H16.3332C16.7934 9.16667 17.1665 8.79357 17.1665 8.33333V7.5C17.1665 7.03976 16.7934 6.66667 16.3332 6.66667ZM4.6665 5C3.28579 5 2.1665 6.11929 2.1665 7.5V8.33333C2.1665 9.71405 3.28579 10.8333 4.6665 10.8333H16.3332C17.7139 10.8333 18.8332 9.71405 18.8332 8.33333V7.5C18.8332 6.11929 17.7139 5 16.3332 5H4.6665Z" fill="#EF4444"/>
<path d="M9.6665 5H11.3332V17.5H9.6665V5Z" fill="#F43F5E"/>
<path fill-rule="evenodd" clip-rule="evenodd" d="M8.8335 6.6665C7.45278 6.6665 6.3335 5.54722 6.3335 4.1665C6.3335 2.78579 7.45278 1.6665 8.8335 1.6665C9.47379 1.6665 10.0579 1.90722 10.5002 2.30308C10.9425 1.90722 11.5265 1.6665 12.1668 1.6665C13.5475 1.6665 14.6668 2.78579 14.6668 4.1665C14.6668 5.54722 13.5475 6.6665 12.1668 6.6665H8.8335ZM8.8335 3.33317C9.29373 3.33317 9.66683 3.70627 9.66683 4.1665V4.99984H8.8335C8.37326 4.99984 8.00016 4.62674 8.00016 4.1665C8.00016 3.70627 8.37326 3.33317 8.8335 3.33317ZM11.3335 4.99984H12.1668C12.6271 4.99984 13.0002 4.62674 13.0002 4.1665C13.0002 3.70627 12.6271 3.33317 12.1668 3.33317C11.7066 3.33317 11.3335 3.70627 11.3335 4.1665V4.99984Z" fill="#EF4444"/>
</svg>
