<svg width="24" height="25" viewBox="0 0 24 25" fill="none" xmlns="http://www.w3.org/2000/svg">
<path fill-rule="evenodd" clip-rule="evenodd" d="M1 6.5C1 4.84315 2.34315 3.5 4 3.5H20C21.6569 3.5 23 4.84315 23 6.5V18.5C23 20.1569 21.6569 21.5 20 21.5H4C2.34315 21.5 1 20.1569 1 18.5V6.5ZM5 15.5C5 14.9477 5.44772 14.5 6 14.5C6.55228 14.5 7 14.9477 7 15.5V17.5C7 18.0523 6.55228 18.5 6 18.5C5.44772 18.5 5 18.0523 5 17.5V15.5ZM10 8.5C9.44771 8.5 9 8.94772 9 9.5V17.5C9 18.0523 9.44771 18.5 10 18.5C10.5523 18.5 11 18.0523 11 17.5V9.5C11 8.94771 10.5523 8.5 10 8.5ZM13 11.5C13 10.9477 13.4477 10.5 14 10.5C14.5523 10.5 15 10.9477 15 11.5V17.5C15 18.0523 14.5523 18.5 14 18.5C13.4477 18.5 13 18.0523 13 17.5V11.5ZM18 6.5C17.4477 6.5 17 6.94771 17 7.5V17.5C17 18.0523 17.4477 18.5 18 18.5C18.5523 18.5 19 18.0523 19 17.5V7.5C19 6.94772 18.5523 6.5 18 6.5Z" fill="#EF4444"/>
</svg>
