<svg width="24" height="25" viewBox="0 0 24 25" fill="none" xmlns="http://www.w3.org/2000/svg">
<path d="M11 16C11 15.7239 10.7761 15.5 10.5 15.5H4C3.44772 15.5 3 15.9477 3 16.5V19.5C3 21.1569 4.34315 22.5 6 22.5H10.5C10.7761 22.5 11 22.2761 11 22V16Z" fill="#EF4444"/>
<path d="M13 22C13 22.2761 13.2239 22.5 13.5 22.5H18C19.6569 22.5 21 21.1569 21 19.5V16.5C21 15.9477 20.5523 15.5 20 15.5H13.5C13.2239 15.5 13 15.7239 13 16V22Z" fill="#EF4444"/>
<path d="M11 9C11 8.72386 10.7761 8.5 10.5 8.5H4C2.89543 8.5 2 9.39543 2 10.5V11.5C2 12.6046 2.89543 13.5 4 13.5H10.5C10.7761 13.5 11 13.2761 11 13V9Z" fill="#EF4444"/>
<path d="M13 13C13 13.2761 13.2239 13.5 13.5 13.5H20C21.1046 13.5 22 12.6046 22 11.5V10.5C22 9.39543 21.1046 8.5 20 8.5H13.5C13.2239 8.5 13 8.72386 13 9V13Z" fill="#EF4444"/>
<path d="M7 4.5C7 3.39543 7.89543 2.5 9 2.5C10.1046 2.5 11 3.39543 11 4.5V6C11 6.27614 10.7761 6.5 10.5 6.5H9C7.89543 6.5 7 5.60457 7 4.5Z" fill="#EF4444"/>
<path d="M17 4.5C17 3.39543 16.1046 2.5 15 2.5C13.8954 2.5 13 3.39543 13 4.5V6C13 6.27614 13.2239 6.5 13.5 6.5H15C16.1046 6.5 17 5.60457 17 4.5Z" fill="#EF4444"/>
</svg>
