<svg width="24" height="25" viewBox="0 0 24 25" fill="none" xmlns="http://www.w3.org/2000/svg">
<path fill-rule="evenodd" clip-rule="evenodd" d="M5.09164 13.7288C5.25184 11.5124 6.99423 9.79156 9.21197 9.65059C10.5382 9.56629 12.1599 9.5 13.9805 9.5C15.801 9.5 17.4227 9.56629 18.749 9.65059C20.9667 9.79156 22.7091 11.5124 22.8693 13.7288C22.934 14.6234 22.9805 15.585 22.9805 16.5C22.9805 17.415 22.934 18.3766 22.8693 19.2712C22.7091 21.4876 20.9667 23.2084 18.749 23.3494C17.4227 23.4337 15.801 23.5 13.9805 23.5C12.1599 23.5 10.5382 23.4337 9.21197 23.3494C6.99423 23.2084 5.25184 21.4876 5.09164 19.2712C5.02699 18.3766 4.98047 17.415 4.98047 16.5C4.98047 15.585 5.02699 14.6234 5.09164 13.7288ZM15.9805 15.5C15.9805 16.2403 15.5783 16.8866 14.9805 17.2324V18.5C14.9805 19.0523 14.5328 19.5 13.9805 19.5C13.4282 19.5 12.9805 19.0523 12.9805 18.5V17.2324C12.3827 16.8866 11.9805 16.2403 11.9805 15.5C11.9805 14.3954 12.8759 13.5 13.9805 13.5C15.085 13.5 15.9805 14.3954 15.9805 15.5Z" fill="#EF4444"/>
<path fill-rule="evenodd" clip-rule="evenodd" d="M1.01953 6.5C1.01953 3.73858 3.25811 1.5 6.01953 1.5C8.78095 1.5 11.0195 3.73858 11.0195 6.5V10.5C11.0195 11.0523 10.5718 11.5 10.0195 11.5C9.46725 11.5 9.01953 11.0523 9.01953 10.5V6.5C9.01953 4.84315 7.67639 3.5 6.01953 3.5C4.36268 3.5 3.01953 4.84315 3.01953 6.5V10.5C3.01953 11.0523 2.57182 11.5 2.01953 11.5C1.46725 11.5 1.01953 11.0523 1.01953 10.5V6.5Z" fill="#EF4444"/>
</svg>
