<svg width="24" height="24" viewBox="0 0 24 24" fill="none" xmlns="http://www.w3.org/2000/svg">
<path fill-rule="evenodd" clip-rule="evenodd" d="M1.75195 21.0414C1.19967 21.0414 0.751953 21.4891 0.751953 22.0414C0.751953 22.5937 1.19967 23.0414 1.75195 23.0414H11.8365C15.3543 23.0414 18.6015 21.1539 20.3424 18.0972L23.0653 13.3164C23.6393 12.3086 23.4687 11.0414 22.6486 10.2212C21.6512 9.2239 20.0371 9.21451 19.0283 10.2002L15.1223 14.0163C14.6316 13.2364 13.7632 12.718 12.7736 12.718H8.58377C6.73718 12.718 4.96621 13.4516 3.66048 14.7573L2.77175 15.6461C2.38122 16.0366 2.38122 16.6697 2.77175 17.0603C3.16227 17.4508 3.79544 17.4508 4.18596 17.0603L5.07469 16.1715C6.00535 15.2409 7.26761 14.718 8.58377 14.718H12.7736C13.2004 14.718 13.5464 15.064 13.5464 15.4908C13.5464 15.9175 13.2004 16.2635 12.7736 16.2635H9.85105C9.29877 16.2635 8.85105 16.7112 8.85105 17.2635C8.85105 17.8158 9.29877 18.2635 9.85105 18.2635H12.7736C13.8943 18.2635 14.8597 17.5986 15.2969 16.6419L20.4259 11.6308C20.6512 11.4107 21.0116 11.4127 21.2344 11.6355C21.4175 11.8186 21.4556 12.1016 21.3274 12.3266L18.6046 17.1073C17.2193 19.5395 14.6355 21.0414 11.8365 21.0414H1.75195Z" fill="#F43F5E"/>
<path fill-rule="evenodd" clip-rule="evenodd" d="M13.1238 8.34449C14.6538 8.34449 15.894 7.1042 15.894 5.57422C15.894 4.04425 14.6538 2.80396 13.1238 2.80396C11.5938 2.80396 10.3535 4.04425 10.3535 5.57422C10.3535 7.1042 11.5938 8.34449 13.1238 8.34449ZM13.1238 10.3445C15.7583 10.3445 17.894 8.20877 17.894 5.57422C17.894 2.93968 15.7583 0.803955 13.1238 0.803955C10.4892 0.803955 8.35352 2.93968 8.35352 5.57422C8.35352 8.20877 10.4892 10.3445 13.1238 10.3445Z" fill="#F43F5E"/>
</svg>
