<svg width="81" height="80" viewBox="0 0 81 80" fill="none" xmlns="http://www.w3.org/2000/svg">
<rect x="19.6738" y="36.0516" width="51" height="42" rx="9" fill="url(#paint0_linear_276_57855)"/>
<rect x="38.3262" y="35.9484" width="12" height="42" fill="url(#paint1_linear_276_57855)"/>
<rect x="5.77832" y="46.9388" width="55.2749" height="14.0822" rx="5" transform="rotate(-50 5.77832 46.9388)" fill="url(#paint2_linear_276_57855)"/>
<rect x="19.6641" y="30.3886" width="12" height="14" transform="rotate(-50 19.6641 30.3886)" fill="url(#paint3_linear_276_57855)"/>
<rect x="13.2788" y="26.9435" width="16" height="16" rx="8" transform="rotate(-98.4125 13.2788 26.9435)" fill="url(#paint4_linear_276_57855)"/>
<rect x="7.51855" y="33.8591" width="16" height="16" rx="8" transform="rotate(-98.4125 7.51855 33.8591)" fill="url(#paint5_linear_276_57855)"/>
<rect x="48.3262" y="25.9484" width="3" height="7" rx="1.5" fill="#323748"/>
<rect x="53.3262" y="27.9484" width="3" height="7" rx="1.5" transform="rotate(90 53.3262 27.9484)" fill="#323748"/>
<rect x="56.3262" y="13.9484" width="3" height="7" rx="1.5" fill="#323748"/>
<rect x="61.3262" y="15.9484" width="3" height="7" rx="1.5" transform="rotate(90 61.3262 15.9484)" fill="#323748"/>
<rect x="64.3262" y="25.9484" width="3" height="7" rx="1.5" fill="#323748"/>
<rect x="69.3262" y="27.9484" width="3" height="7" rx="1.5" transform="rotate(90 69.3262 27.9484)" fill="#323748"/>
<defs>
<linearGradient id="paint0_linear_276_57855" x1="45.1738" y1="36.0516" x2="45.1738" y2="78.0516" gradientUnits="userSpaceOnUse">
<stop stop-color="#222531" stop-opacity="0"/>
<stop offset="1" stop-color="#222531"/>
</linearGradient>
<linearGradient id="paint1_linear_276_57855" x1="44.3262" y1="35.9484" x2="44.3262" y2="77.9484" gradientUnits="userSpaceOnUse">
<stop stop-color="#222531" stop-opacity="0"/>
<stop offset="1" stop-color="#323748"/>
</linearGradient>
<linearGradient id="paint2_linear_276_57855" x1="33.4158" y1="46.9388" x2="33.4158" y2="61.021" gradientUnits="userSpaceOnUse">
<stop stop-color="#222531"/>
<stop offset="1" stop-color="#222531"/>
</linearGradient>
<linearGradient id="paint3_linear_276_57855" x1="25.6641" y1="30.3886" x2="25.6641" y2="44.3886" gradientUnits="userSpaceOnUse">
<stop stop-color="#323748"/>
<stop offset="1" stop-color="#323748" stop-opacity="0"/>
</linearGradient>
<linearGradient id="paint4_linear_276_57855" x1="21.2788" y1="26.9435" x2="21.2788" y2="42.9435" gradientUnits="userSpaceOnUse">
<stop stop-color="#323748"/>
<stop offset="1" stop-color="#323748" stop-opacity="0"/>
</linearGradient>
<linearGradient id="paint5_linear_276_57855" x1="15.5186" y1="33.8591" x2="15.5186" y2="49.8591" gradientUnits="userSpaceOnUse">
<stop stop-color="#323748"/>
<stop offset="1" stop-color="#323748" stop-opacity="0"/>
</linearGradient>
</defs>
</svg>
