<svg width="66" height="66" viewBox="20 15 26 26" fill="none" xmlns="http://www.w3.org/2000/svg">
<g filter="url(#filter0_d_276_89526)">
<path d="M24.5119 16.5911C26.717 16.3602 29.0367 17.8642 29.0367 17.8642L29.811 18.3759C28.8451 18.9345 26.5431 20.3195 24.7002 21.8677C23.1515 18.783 23.0355 16.7467 24.5119 16.5911Z" fill="url(#paint0_linear_276_89526)"/>
<g style="mix-blend-mode:soft-light">
<path d="M31.3078 18.7115C31.3078 18.7115 23.7581 14.5676 23.38 19.6271C23.0356 24.3442 25.3465 25.5153 25.5749 24.7408C25.8032 23.9664 29.3593 18.9048 31.3078 18.7115Z" fill="#0B111D" fill-opacity="0.7"/>
</g>
<path d="M40.0164 26.0639C41.5484 23.4104 40.5052 20.9212 37.169 16.7173C34.9086 13.8597 29.0762 13.0626 26.4065 20.5229C23.7368 27.9831 37.9556 29.6221 40.0164 26.0639Z" fill="url(#paint1_linear_276_89526)"/>
<path style="mix-blend-mode:multiply" d="M38.5801 20.9729C38.1809 19.6471 37.4455 17.7476 34.9434 16.6988C32.4413 15.65 29.0407 16.0905 26.3641 20.5872C23.6876 25.0838 40.4953 27.3371 38.5801 20.9729Z" fill="url(#paint2_radial_276_89526)"/>
<path d="M35.7641 20.538C37.1958 19.195 40.2109 20.5448 43.4061 22.1763C44.7481 22.8607 45.6073 24.011 45.5091 25.3873C45.374 27.2931 41.902 32.2982 36.8391 36.7434C29.1717 42.2423 33.8325 32.1998 34.5661 29.982C35.2997 27.7642 34.0286 22.1677 35.7641 20.538Z" fill="url(#paint3_linear_276_89526)"/>
<path style="mix-blend-mode:multiply" d="M35.764 20.5379C36.1705 20.157 36.7029 19.9927 37.3322 19.9893C41.4931 21.4998 46.1113 24.0515 44.1135 28.0466C42.9717 30.3308 38.2397 34.7296 38.2397 34.7296C38.2397 34.7296 35.4389 23.0512 35.3302 21.1388C35.4391 20.915 35.5859 20.7116 35.764 20.5379Z" fill="url(#paint4_radial_276_89526)"/>
<path d="M40.4504 24.4536C41.0905 23.345 39.2699 21.0935 36.3818 19.4261C33.4937 17.7587 30.6323 17.307 29.9923 18.4156C29.6383 19.0287 30.3423 20.0911 30.4079 20.7799C30.6754 23.6291 27.1342 27.1855 27.1645 29.7102C27.8504 27.2323 30.0689 24.7716 31.2629 23.8067C32.2662 22.9966 33.961 23.5131 35.1338 24.006C37.4952 25.1368 39.8628 25.4714 40.4504 24.4536Z" fill="url(#paint5_linear_276_89526)"/>
<g style="mix-blend-mode:soft-light">
<path d="M37.9226 20.8084C37.9226 20.8084 40.3455 23.12 39.5206 25.0057C38.2178 25.2535 36.337 24.5828 35.124 24.0036C34.4428 23.7153 33.585 23.4236 32.7896 23.386C33.569 21.1333 35.0958 18.7563 37.9226 20.8084Z" fill="#0B111D"/>
</g>
<path d="M33.7897 20.603C34.6421 21.57 34.5344 22.7679 34.2458 23.6772C34.4725 23.7499 34.6918 23.8297 34.8985 23.9119C35.604 23.4727 36.5486 23.1489 37.6055 23.4748C38.5489 23.7658 39.1757 22.4266 37.9274 20.8109C36.6791 19.1952 35.6336 18.22 34.077 17.5088C32.5205 16.7975 31.6471 18.1737 33.7897 20.603Z" fill="url(#paint6_linear_276_89526)"/>
<path d="M34.8984 23.9121C35.604 23.4729 36.5485 23.1491 37.6054 23.475C37.7769 23.5375 37.966 23.5317 38.1339 23.459C38.3018 23.3862 38.4359 23.2519 38.5085 23.0836C38.2127 23.7038 37.8686 24.2997 37.4795 24.8659C36.5925 24.6249 35.7288 24.3058 34.8984 23.9121Z" fill="url(#paint7_linear_276_89526)"/>
<path d="M32.8993 17.4173C32.2692 17.7482 32.309 18.9246 33.7932 20.6054C34.6455 21.5724 34.5378 22.7703 34.2492 23.6797C34.3867 23.7202 32.3572 22.9282 31.2664 23.8089C30.0675 24.771 27.8567 27.2296 27.168 29.7124C27.1377 27.1877 30.6789 23.6313 30.4114 20.7821C30.3742 20.5205 30.3061 20.2643 30.2086 20.0189C31.1423 18.7082 32.4895 17.5587 32.8993 17.4173Z" fill="url(#paint8_linear_276_89526)"/>
<path d="M34.8648 19.7524C34.2704 19.3026 32.9877 18.5878 32.7834 19.1533C33.0514 19.6804 33.3899 20.1683 33.7896 20.6033C34.1383 20.993 34.362 21.4789 34.4319 21.9984C35.3704 22.6016 36.2278 22.7881 36.5952 22.564C37.0417 22.2839 36.5123 20.9943 34.8648 19.7524Z" fill="url(#paint9_linear_276_89526)"/>
<path d="M34.427 21.9956C35.3655 22.5988 36.223 22.7853 36.5904 22.5612C36.7371 22.4715 36.7794 22.2729 36.7141 22.0042C36.7608 22.1114 36.7822 22.228 36.7766 22.3449C36.771 22.4619 36.7386 22.5761 36.6819 22.6786C36.544 22.9278 36.3887 23.1669 36.2172 23.3942C35.7509 23.4831 35.3053 23.66 34.9044 23.9157C34.6977 23.8336 34.4784 23.7538 34.2517 23.6811C34.5888 22.5316 34.423 21.969 34.427 21.9956Z" fill="url(#paint10_linear_276_89526)"/>
<path d="M36.5022 22.3532C36.649 22.2634 36.7782 22.2722 36.713 22.0035C36.713 22.0035 36.8778 22.4509 36.6165 22.6247C36.2525 22.8653 35.395 22.6788 34.4418 22.0703C34.4384 22.0451 34.4335 22.0201 34.4271 21.9956C35.3717 22.6023 36.1372 22.5786 36.5022 22.3532Z" fill="white"/>
<g style="mix-blend-mode:soft-light">
<g style="mix-blend-mode:multiply">
<path d="M29.9922 18.416C29.7735 19.4578 30.9541 19.784 31.2372 20.9345C31.5204 22.085 30.6856 22.8567 30.0946 24.2231C33.2108 19.8591 34.5845 24.3614 38.1943 25.0045C37.3487 24.8644 36.5237 24.6214 35.7377 24.2808C35.1672 24.0403 32.6074 22.7207 31.2628 23.8071C30.0322 24.8576 28.9799 26.1015 28.1474 27.4898C28.0555 27.4119 27.9682 27.3286 27.8861 27.2404C28.8991 25.1403 30.5958 22.7838 30.4078 20.7803C30.3422 20.0915 29.6382 19.0291 29.9922 18.416Z" fill="#0B111D" fill-opacity="0.7"/>
</g>
</g>
<path d="M40.5714 24.0604C40.3948 25.8792 36.9429 24.8734 35.1322 24.0089C33.9609 23.5136 32.2647 22.9996 31.2628 23.8072C30.0639 24.7693 27.8531 27.2279 27.1643 29.7107C27.1341 27.186 30.6753 23.6296 30.4077 20.7804C30.3401 20.0952 29.6382 19.0292 29.9921 18.4161C30.0632 18.2965 30.1593 18.1938 30.2737 18.115C30.2737 18.115 23.7756 21.6751 22.3496 24.5044C21.0665 26.7268 20.715 29.3657 21.3724 31.8406C22.0297 34.3154 23.6422 36.4235 25.855 37.7011C28.0678 38.9786 30.6997 39.321 33.1716 38.6529C35.6436 37.9848 37.7532 36.3609 39.0363 34.1385C40.7748 31.4896 40.5714 24.0604 40.5714 24.0604Z" fill="url(#paint11_linear_276_89526)"/>
<g style="mix-blend-mode:soft-light">
<path d="M34.0861 28.0663C32.7902 25.0758 26.3598 24.7073 23.9292 20.5286C23.609 22.6377 22.1997 26.1988 21.796 30.074C21.595 32.651 23.3301 34.2343 24.5629 34.8265C25.9359 35.4851 26.4611 35.6203 27.4378 35.4831C29.9112 35.1357 35.634 31.6482 34.0861 28.0663Z" fill="#0B111D" fill-opacity="0.7"/>
</g>
<g style="mix-blend-mode:soft-light">
<path d="M43.1207 28.1196C43.1207 28.1196 39.9576 25.7974 36.9738 27.4689C33.9901 29.1405 34.1272 33.6978 30.2889 35.9244C26.4507 38.151 40.9229 36.526 43.1207 28.1196Z" fill="#0B111D" fill-opacity="0.7"/>
</g>
<path d="M45.5139 25.3901C44.3167 30.2498 38.4267 26.9784 35.4105 31.1885C31.9129 36.0625 26.752 38.0154 23.2442 35.4878C25.0948 37.7291 27.4516 38.4043 27.4516 38.4043C28.8009 38.8572 30.2346 39.0049 31.65 38.837C33.0654 38.6691 34.4273 38.1897 35.6383 37.4331C35.9571 37.2262 36.241 37.0299 36.4694 36.8515C38.1721 35.5212 41.1102 32.3936 43.0557 29.8012C45.0012 27.2088 45.536 25.5386 45.5139 25.3901Z" fill="white"/>
<path d="M45.2587 25.8649C44.0718 30.5848 38.5781 27.5388 35.6453 31.6408C32.2473 36.3913 26.3403 37.7463 22.9898 35.3227C24.7612 37.5542 27.944 38.6951 27.944 38.6951C29.2368 39.1239 30.6129 39.2563 31.9738 39.0828C33.3347 38.9093 34.6467 38.4342 35.8157 37.6916C36.1236 37.4887 36.3977 37.2962 36.6185 37.1217C38.2642 35.8191 41.1103 32.7651 42.9988 30.2374C44.8873 27.7097 45.2787 26.0087 45.2587 25.8649Z" fill="url(#paint12_linear_276_89526)"/>
<path d="M21.5864 26.4142C21.5299 26.5706 21.4726 26.7507 21.4166 26.9478L21.4299 26.9555C21.0514 28.4093 21.015 29.9302 21.3235 31.398C21.632 32.8658 22.2771 34.2404 23.2077 35.4132C23.9363 36.3298 27.2135 36.3511 29.9862 34.2315C31.9435 32.7331 35.094 29.3825 31.0725 27.3352C27.5614 25.5488 25.5027 23.8546 24.5818 21.4683C23.6105 19.4536 23.2415 17.722 23.7707 16.9613C23.7707 16.9613 23.2859 17.6394 23.1924 19.3867C23.0988 21.1339 22.2383 24.6387 21.5864 26.4142Z" fill="white"/>
<path d="M21.3257 26.4926C21.2711 26.6447 21.2157 26.8199 21.1617 27.0117L21.1748 27.0193C20.8102 28.4341 20.7807 29.9156 21.0888 31.3468C21.3968 32.778 22.0339 34.1197 22.9497 35.2661C23.6668 36.162 26.8749 36.1962 29.5806 34.1426C31.4905 32.6909 34.5609 29.4396 30.6157 27.4287C27.1713 25.674 25.149 24.015 24.2378 21.6866C23.2787 19.7198 23.2593 17.7309 23.7743 16.992C23.7743 16.992 22.9523 17.9504 22.8691 19.6529C22.7859 21.3554 21.9566 24.7656 21.3257 26.4926Z" fill="url(#paint13_linear_276_89526)"/>
<path d="M31.1486 24.1844C30.3138 24.8914 29.6766 25.3139 29.0233 26.192L29.0101 26.1843C29.6809 25.2711 30.4562 24.4396 31.3202 23.7071C32.3228 22.8983 34.0183 23.4135 35.1896 23.9088C36.8037 24.6792 39.7219 25.5562 40.4607 24.4577C39.8323 25.7105 36.9464 25.2515 35.2862 24.4577C34.1156 23.9612 32.1519 23.3744 31.1486 24.1844Z" fill="white"/>
<path d="M28.5765 25.9134C29.5173 24.1836 30.1672 22.3815 30.0229 20.7926C29.9553 20.1074 29.6431 19.0317 29.9971 18.4186C30.0055 18.4041 30.0146 18.3883 30.0229 18.3738C29.7399 18.9922 30.4047 20.011 30.463 20.6763C30.6144 22.3001 29.5317 24.1531 28.5765 25.9134Z" fill="#EFD8DE"/>
<path d="M34.077 17.5092C34.3629 17.6388 34.6416 17.784 34.9116 17.9442C34.6556 17.7941 34.3922 17.6571 34.1223 17.5338C32.5942 16.8373 31.7261 18.1988 33.8271 20.5943C34.6634 21.5473 34.5536 22.7294 34.2668 23.6301C34.4879 23.7012 34.7037 23.7789 34.9067 23.859C35.604 23.4231 36.5342 23.0991 37.5739 23.4183C38.5003 23.7027 38.1926 22.0714 37.4882 20.6626C37.2093 20.1047 37.2282 19.944 36.9021 19.5894C37.2376 19.9527 37.5756 20.3563 37.9291 20.814C39.181 22.4317 38.5417 23.9211 37.5983 23.6301C36.5397 23.3016 35.6054 23.4707 34.8984 23.9123C34.6917 23.8302 34.4724 23.7504 34.2458 23.6777C34.5343 22.7683 34.1141 21.6297 33.2618 20.6626C31.1192 18.2333 32.5187 16.7953 34.077 17.5092Z" fill="white"/>
</g>
<defs>
<filter id="filter0_d_276_89526" x="0.877686" y="0.666016" width="64.6392" height="64.4907" filterUnits="userSpaceOnUse" color-interpolation-filters="sRGB">
<feFlood flood-opacity="0" result="BackgroundImageFix"/>
<feColorMatrix in="SourceAlpha" type="matrix" values="0 0 0 0 0 0 0 0 0 0 0 0 0 0 0 0 0 0 127 0" result="hardAlpha"/>
<feOffset dy="6"/>
<feGaussianBlur stdDeviation="10"/>
<feComposite in2="hardAlpha" operator="out"/>
<feColorMatrix type="matrix" values="0 0 0 0 0.862745 0 0 0 0 0.2 0 0 0 0 0.0941176 0 0 0 0.3 0"/>
<feBlend mode="normal" in2="BackgroundImageFix" result="effect1_dropShadow_276_89526"/>
<feBlend mode="normal" in="SourceGraphic" in2="effect1_dropShadow_276_89526" result="shape"/>
</filter>
<linearGradient id="paint0_linear_276_89526" x1="27.0213" y1="23.2078" x2="22.9618" y2="22.1869" gradientUnits="userSpaceOnUse">
<stop stop-color="#9747FF"/>
<stop offset="1" stop-color="#BC89FF"/>
</linearGradient>
<linearGradient id="paint1_linear_276_89526" x1="37.0738" y1="31.1607" x2="27.0103" y2="28.8616" gradientUnits="userSpaceOnUse">
<stop stop-color="#9747FF"/>
<stop offset="1" stop-color="#BC89FF"/>
</linearGradient>
<radialGradient id="paint2_radial_276_89526" cx="0" cy="0" r="1" gradientUnits="userSpaceOnUse" gradientTransform="translate(32.6392 21.7707) rotate(-150) scale(5.79214 5.81731)">
<stop stop-color="#5F1BB7"/>
<stop offset="0.21" stop-color="#9747FF"/>
<stop offset="0.67" stop-color="#C497FF"/>
<stop offset="0.97" stop-color="#B983FF"/>
</radialGradient>
<linearGradient id="paint3_linear_276_89526" x1="37.1402" y1="40.6464" x2="29.5089" y2="37.7262" gradientUnits="userSpaceOnUse">
<stop stop-color="#9747FF"/>
<stop offset="1" stop-color="#BC89FF"/>
</linearGradient>
<radialGradient id="paint4_radial_276_89526" cx="0" cy="0" r="1" gradientUnits="userSpaceOnUse" gradientTransform="translate(40.5185 29.1471) rotate(-150) scale(5.20429 5.2269)">
<stop stop-color="#6119BF"/>
<stop offset="0.26" stop-color="#8E40F3"/>
<stop offset="0.84" stop-color="#CDA6FF"/>
<stop offset="0.97" stop-color="#B983FF"/>
</radialGradient>
<linearGradient id="paint5_linear_276_89526" x1="38.145" y1="30.1874" x2="35.6789" y2="22.3887" gradientUnits="userSpaceOnUse">
<stop stop-color="#9747FF"/>
<stop offset="1" stop-color="#7021D7"/>
</linearGradient>
<linearGradient id="paint6_linear_276_89526" x1="38.6703" y1="23.9333" x2="31.851" y2="20.3494" gradientUnits="userSpaceOnUse">
<stop stop-color="#9747FF"/>
<stop offset="1" stop-color="#7A29E4"/>
</linearGradient>
<linearGradient id="paint7_linear_276_89526" x1="37.2823" y1="25.2884" x2="35.4074" y2="24.8342" gradientUnits="userSpaceOnUse">
<stop stop-color="#9747FF"/>
<stop offset="1" stop-color="#BC89FF"/>
</linearGradient>
<linearGradient id="paint8_linear_276_89526" x1="29.8723" y1="31.2737" x2="26.3293" y2="29.7016" gradientUnits="userSpaceOnUse">
<stop stop-color="#9747FF"/>
<stop offset="1" stop-color="#BC89FF"/>
</linearGradient>
<linearGradient id="paint9_linear_276_89526" x1="32.5239" y1="21.2879" x2="36.9805" y2="20.4473" gradientUnits="userSpaceOnUse">
<stop stop-color="#9747FF"/>
<stop offset="1" stop-color="#691ACF"/>
</linearGradient>
<linearGradient id="paint10_linear_276_89526" x1="35.6411" y1="24.4833" x2="34.0785" y2="24.0049" gradientUnits="userSpaceOnUse">
<stop stop-color="#9747FF"/>
<stop offset="1" stop-color="#BC89FF"/>
</linearGradient>
<linearGradient id="paint11_linear_276_89526" x1="34.2037" y1="42.5212" x2="21.0634" y2="39.0391" gradientUnits="userSpaceOnUse">
<stop stop-color="#9747FF"/>
<stop offset="1" stop-color="#BC89FF"/>
</linearGradient>
<linearGradient id="paint12_linear_276_89526" x1="35.6021" y1="43.3163" x2="25.477" y2="39.9077" gradientUnits="userSpaceOnUse">
<stop stop-color="#9747FF"/>
<stop offset="1" stop-color="#BC89FF"/>
</linearGradient>
<linearGradient id="paint13_linear_276_89526" x1="28.108" y1="38.3205" x2="18.2677" y2="35.3922" gradientUnits="userSpaceOnUse">
<stop stop-color="#9747FF"/>
<stop offset="1" stop-color="#BC89FF"/>
</linearGradient>
</defs>
</svg>
