<svg width="81" height="80" viewBox="0 0 81 80" fill="none" xmlns="http://www.w3.org/2000/svg">
<rect x="6.77148" y="5.65193" width="66.957" height="56.5221" rx="15" fill="url(#paint0_linear_276_85280)"/>
<rect x="50.25" y="56.0871" width="10.4349" height="18.261" rx="5.21743" fill="url(#paint1_linear_276_85280)"/>
<rect x="20.6846" y="56.0871" width="10.4349" height="18.261" rx="5.21743" fill="url(#paint2_linear_276_85280)"/>
<rect x="36.3369" y="10.8694" width="7.82614" height="13.9131" rx="3.91307" fill="url(#paint3_linear_276_85280)"/>
<rect x="31.1194" y="29.1304" width="8.69571" height="13.9131" rx="4.34786" transform="rotate(90 31.1194 29.1304)" fill="url(#paint4_linear_276_85280)"/>
<rect x="63.2937" y="29.1304" width="8.69571" height="13.0436" rx="4.34786" transform="rotate(90 63.2937 29.1304)" fill="url(#paint5_linear_276_85280)"/>
<rect x="36.3369" y="43.0435" width="7.82614" height="13.0436" rx="3.91307" fill="url(#paint6_linear_276_85280)"/>
<path fill-rule="evenodd" clip-rule="evenodd" d="M40.2499 39.097C43.4639 39.097 46.0693 36.5814 46.0693 33.4782C46.0693 30.3751 43.4639 27.8594 40.2499 27.8594C37.0359 27.8594 34.4305 30.3751 34.4305 33.4782C34.4305 36.5814 37.0359 39.097 40.2499 39.097ZM40.2499 45.6522C47.2135 45.6522 52.8587 40.2017 52.8587 33.4782C52.8587 26.7547 47.2135 21.3042 40.2499 21.3042C33.2863 21.3042 27.6411 26.7547 27.6411 33.4782C27.6411 40.2017 33.2863 45.6522 40.2499 45.6522Z" fill="#323748"/>
<defs>
<linearGradient id="paint0_linear_276_85280" x1="40.25" y1="5.65193" x2="40.25" y2="62.1741" gradientUnits="userSpaceOnUse">
<stop stop-color="#222531" stop-opacity="0.2"/>
<stop offset="1" stop-color="#222531"/>
</linearGradient>
<linearGradient id="paint1_linear_276_85280" x1="55.4674" y1="56.0871" x2="55.4674" y2="74.3481" gradientUnits="userSpaceOnUse">
<stop stop-color="#222531" stop-opacity="0"/>
<stop offset="1" stop-color="#323748"/>
</linearGradient>
<linearGradient id="paint2_linear_276_85280" x1="25.902" y1="56.0871" x2="25.902" y2="74.3481" gradientUnits="userSpaceOnUse">
<stop stop-color="#222531" stop-opacity="0"/>
<stop offset="1" stop-color="#323748"/>
</linearGradient>
<linearGradient id="paint3_linear_276_85280" x1="40.25" y1="10.8694" x2="40.25" y2="24.7825" gradientUnits="userSpaceOnUse">
<stop stop-color="#222531" stop-opacity="0"/>
<stop offset="1" stop-color="#323748"/>
</linearGradient>
<linearGradient id="paint4_linear_276_85280" x1="35.4672" y1="29.1304" x2="35.4672" y2="43.0435" gradientUnits="userSpaceOnUse">
<stop stop-color="#222531" stop-opacity="0"/>
<stop offset="1" stop-color="#323748"/>
</linearGradient>
<linearGradient id="paint5_linear_276_85280" x1="67.6416" y1="29.1304" x2="67.6416" y2="42.1739" gradientUnits="userSpaceOnUse">
<stop stop-color="#222531" stop-opacity="0"/>
<stop offset="1" stop-color="#323748"/>
</linearGradient>
<linearGradient id="paint6_linear_276_85280" x1="40.25" y1="43.0435" x2="40.25" y2="56.0871" gradientUnits="userSpaceOnUse">
<stop stop-color="#222531" stop-opacity="0"/>
<stop offset="1" stop-color="#323748"/>
</linearGradient>
</defs>
</svg>
