<svg width="25" height="24" viewBox="0 0 25 24" fill="none" xmlns="http://www.w3.org/2000/svg">
<path fill-rule="evenodd" clip-rule="evenodd" d="M19.5 5H5.5C4.39543 5 3.5 5.89543 3.5 7V17C3.5 18.1046 4.39543 19 5.5 19H19.5C20.6046 19 21.5 18.1046 21.5 17V7C21.5 5.89543 20.6046 5 19.5 5ZM5.5 3C3.29086 3 1.5 4.79086 1.5 7V17C1.5 19.2091 3.29086 21 5.5 21H19.5C21.7091 21 23.5 19.2091 23.5 17V7C23.5 4.79086 21.7091 3 19.5 3H5.5Z" fill="#F43F5E"/>
<path fill-rule="evenodd" clip-rule="evenodd" d="M13.5 12C13.5 9.23858 15.7386 7 18.5 7H22.5C23.0523 7 23.5 7.44772 23.5 8C23.5 8.55228 23.0523 9 22.5 9H18.5C16.8431 9 15.5 10.3431 15.5 12C15.5 13.6569 16.8431 15 18.5 15H22.5C23.0523 15 23.5 15.4477 23.5 16C23.5 16.5523 23.0523 17 22.5 17H18.5C15.7386 17 13.5 14.7614 13.5 12Z" fill="#F43F5E"/>
<path d="M19.5 12C19.5 12.5523 19.0523 13 18.5 13C17.9477 13 17.5 12.5523 17.5 12C17.5 11.4477 17.9477 11 18.5 11C19.0523 11 19.5 11.4477 19.5 12Z" fill="#F43F5E"/>
</svg>
